G04 #@! TF.FileFunction,Copper,L1,Top,Signal*
%FSLAX46Y46*%
G04 Gerber Fmt 4.6, Leading zero omitted, Abs format (unit mm)*
G04 Created by KiCad (PCBNEW 4.0.2-1.fc23-product) date Thu 06 Oct 2016 08:27:40 AM PDT*
%MOMM*%
G01*
G04 APERTURE LIST*
%ADD10C,0.100000*%
%ADD11C,0.158750*%
%ADD12C,0.121000*%
%ADD13R,0.800000X1.000000*%
%ADD14R,2.032000X1.727200*%
%ADD15O,2.032000X1.727200*%
%ADD16R,0.420000X0.600000*%
%ADD17C,0.254000*%
%ADD18C,0.250000*%
G04 APERTURE END LIST*
D10*
D11*
X139704524Y-110935238D02*
X140974524Y-110257905D01*
X139704524Y-109580572D01*
X140490714Y-108903238D02*
X140490714Y-107355048D01*
X140974524Y-108129143D02*
X140006905Y-108129143D01*
X139765000Y-100867810D02*
X139704524Y-101061333D01*
X139704524Y-101351619D01*
X139765000Y-101641905D01*
X139885952Y-101835429D01*
X140006905Y-101932190D01*
X140248810Y-102028952D01*
X140430238Y-102028952D01*
X140672143Y-101932190D01*
X140793095Y-101835429D01*
X140914048Y-101641905D01*
X140974524Y-101351619D01*
X140974524Y-101158095D01*
X140914048Y-100867810D01*
X140853571Y-100771048D01*
X140430238Y-100771048D01*
X140430238Y-101158095D01*
D12*
X132461714Y-94169333D02*
X133187428Y-94169333D01*
X132316571Y-94459619D02*
X132824571Y-93443619D01*
X133332571Y-94459619D01*
X133840571Y-94459619D02*
X133840571Y-93443619D01*
X133840571Y-93927429D02*
X134711428Y-93927429D01*
X134711428Y-94459619D02*
X134711428Y-93443619D01*
X136235428Y-94459619D02*
X135364571Y-94459619D01*
X135799999Y-94459619D02*
X135799999Y-93443619D01*
X135654856Y-93588762D01*
X135509714Y-93685524D01*
X135364571Y-93733905D01*
X137106285Y-93879048D02*
X136961143Y-93830667D01*
X136888571Y-93782286D01*
X136816000Y-93685524D01*
X136816000Y-93637143D01*
X136888571Y-93540381D01*
X136961143Y-93492000D01*
X137106285Y-93443619D01*
X137396571Y-93443619D01*
X137541714Y-93492000D01*
X137614285Y-93540381D01*
X137686857Y-93637143D01*
X137686857Y-93685524D01*
X137614285Y-93782286D01*
X137541714Y-93830667D01*
X137396571Y-93879048D01*
X137106285Y-93879048D01*
X136961143Y-93927429D01*
X136888571Y-93975810D01*
X136816000Y-94072571D01*
X136816000Y-94266095D01*
X136888571Y-94362857D01*
X136961143Y-94411238D01*
X137106285Y-94459619D01*
X137396571Y-94459619D01*
X137541714Y-94411238D01*
X137614285Y-94362857D01*
X137686857Y-94266095D01*
X137686857Y-94072571D01*
X137614285Y-93975810D01*
X137541714Y-93927429D01*
X137396571Y-93879048D01*
X138630286Y-93443619D02*
X138775429Y-93443619D01*
X138920572Y-93492000D01*
X138993143Y-93540381D01*
X139065714Y-93637143D01*
X139138286Y-93830667D01*
X139138286Y-94072571D01*
X139065714Y-94266095D01*
X138993143Y-94362857D01*
X138920572Y-94411238D01*
X138775429Y-94459619D01*
X138630286Y-94459619D01*
X138485143Y-94411238D01*
X138412572Y-94362857D01*
X138340000Y-94266095D01*
X138267429Y-94072571D01*
X138267429Y-93830667D01*
X138340000Y-93637143D01*
X138412572Y-93540381D01*
X138485143Y-93492000D01*
X138630286Y-93443619D01*
X131663428Y-114243619D02*
X132534285Y-114243619D01*
X132098856Y-115259619D02*
X132098856Y-114243619D01*
X133913142Y-115162857D02*
X133840571Y-115211238D01*
X133622857Y-115259619D01*
X133477714Y-115259619D01*
X133259999Y-115211238D01*
X133114857Y-115114476D01*
X133042285Y-115017714D01*
X132969714Y-114824190D01*
X132969714Y-114679048D01*
X133042285Y-114485524D01*
X133114857Y-114388762D01*
X133259999Y-114292000D01*
X133477714Y-114243619D01*
X133622857Y-114243619D01*
X133840571Y-114292000D01*
X133913142Y-114340381D01*
X134493714Y-115211238D02*
X134711428Y-115259619D01*
X135074285Y-115259619D01*
X135219428Y-115211238D01*
X135291999Y-115162857D01*
X135364571Y-115066095D01*
X135364571Y-114969333D01*
X135291999Y-114872571D01*
X135219428Y-114824190D01*
X135074285Y-114775810D01*
X134783999Y-114727429D01*
X134638857Y-114679048D01*
X134566285Y-114630667D01*
X134493714Y-114533905D01*
X134493714Y-114437143D01*
X134566285Y-114340381D01*
X134638857Y-114292000D01*
X134783999Y-114243619D01*
X135146857Y-114243619D01*
X135364571Y-114292000D01*
X136670857Y-114582286D02*
X136670857Y-115259619D01*
X136308000Y-114195238D02*
X135945143Y-114920952D01*
X136888571Y-114920952D01*
X137759429Y-114243619D02*
X137904572Y-114243619D01*
X138049715Y-114292000D01*
X138122286Y-114340381D01*
X138194857Y-114437143D01*
X138267429Y-114630667D01*
X138267429Y-114872571D01*
X138194857Y-115066095D01*
X138122286Y-115162857D01*
X138049715Y-115211238D01*
X137904572Y-115259619D01*
X137759429Y-115259619D01*
X137614286Y-115211238D01*
X137541715Y-115162857D01*
X137469143Y-115066095D01*
X137396572Y-114872571D01*
X137396572Y-114630667D01*
X137469143Y-114437143D01*
X137541715Y-114340381D01*
X137614286Y-114292000D01*
X137759429Y-114243619D01*
X138920572Y-115259619D02*
X138920572Y-114243619D01*
X139283429Y-114243619D01*
X139501144Y-114292000D01*
X139646286Y-114388762D01*
X139718858Y-114485524D01*
X139791429Y-114679048D01*
X139791429Y-114824190D01*
X139718858Y-115017714D01*
X139646286Y-115114476D01*
X139501144Y-115211238D01*
X139283429Y-115259619D01*
X138920572Y-115259619D01*
D13*
X134850000Y-98246480D03*
X135805080Y-95736960D03*
X136750000Y-98246480D03*
D14*
X135800000Y-109000000D03*
D15*
X135800000Y-106460000D03*
X135800000Y-103920000D03*
X135800000Y-101380000D03*
D16*
X136750000Y-111638000D03*
X134850000Y-111638000D03*
X135800000Y-113428700D03*
D17*
X136750000Y-111638000D02*
X136238000Y-111638000D01*
X135800000Y-111200000D02*
X135800000Y-109000000D01*
X136238000Y-111638000D02*
X135800000Y-111200000D01*
D18*
X134850000Y-98246480D02*
X133953520Y-98246480D01*
X133600000Y-109000000D02*
X135800000Y-109000000D01*
D17*
X133000000Y-108400000D02*
X133600000Y-109000000D01*
X133000000Y-99200000D02*
X133000000Y-108400000D01*
X133953520Y-98246480D02*
X133000000Y-99200000D01*
D18*
X135805080Y-95736960D02*
X133263040Y-95736960D01*
D17*
X133238000Y-111638000D02*
X134850000Y-111638000D01*
X131600000Y-110000000D02*
X133238000Y-111638000D01*
D18*
X131600000Y-97400000D02*
X131600000Y-110000000D01*
X133263040Y-95736960D02*
X131600000Y-97400000D01*
X135805080Y-95736960D02*
X135805080Y-101374920D01*
X135805080Y-101374920D02*
X135800000Y-101380000D01*
D17*
X136750000Y-98246480D02*
X137846480Y-98246480D01*
X137880000Y-103920000D02*
X135800000Y-103920000D01*
X138800000Y-103000000D02*
X137880000Y-103920000D01*
X138800000Y-99200000D02*
X138800000Y-103000000D01*
X137846480Y-98246480D02*
X138800000Y-99200000D01*
X135800000Y-106460000D02*
X137660000Y-106460000D01*
X137771300Y-113428700D02*
X135800000Y-113428700D01*
X138800000Y-112400000D02*
X137771300Y-113428700D01*
X138800000Y-107600000D02*
X138800000Y-112400000D01*
X137660000Y-106460000D02*
X138800000Y-107600000D01*
G36*
X131062599Y-96862599D02*
X130897852Y-97109161D01*
X130840000Y-97400000D01*
X130840000Y-109989950D01*
X130838001Y-110000000D01*
X130896004Y-110291604D01*
X131061185Y-110538815D01*
X132699185Y-112176815D01*
X132946395Y-112341996D01*
X133238000Y-112400000D01*
X134191364Y-112400000D01*
X134388110Y-112534431D01*
X134640000Y-112585440D01*
X135060000Y-112585440D01*
X135295317Y-112541162D01*
X135511441Y-112402090D01*
X135656431Y-112189890D01*
X135665833Y-112143464D01*
X135699185Y-112176816D01*
X135946396Y-112341997D01*
X136059910Y-112364576D01*
X136075910Y-112389441D01*
X136288110Y-112534431D01*
X136540000Y-112585440D01*
X136960000Y-112585440D01*
X137195317Y-112541162D01*
X137411441Y-112402090D01*
X137556431Y-112189890D01*
X137607440Y-111938000D01*
X137607440Y-111338000D01*
X137563162Y-111102683D01*
X137424090Y-110886559D01*
X137211890Y-110741569D01*
X136960000Y-110690560D01*
X136562000Y-110690560D01*
X136562000Y-110511040D01*
X136816000Y-110511040D01*
X137051317Y-110466762D01*
X137267441Y-110327690D01*
X137412431Y-110115490D01*
X137463440Y-109863600D01*
X137463440Y-108136400D01*
X137419162Y-107901083D01*
X137280090Y-107684959D01*
X137067890Y-107539969D01*
X137026561Y-107531600D01*
X137044415Y-107519670D01*
X137243312Y-107222000D01*
X137344370Y-107222000D01*
X138038000Y-107915631D01*
X138038000Y-112084369D01*
X137455670Y-112666700D01*
X136458636Y-112666700D01*
X136261890Y-112532269D01*
X136010000Y-112481260D01*
X135590000Y-112481260D01*
X135354683Y-112525538D01*
X135138559Y-112664610D01*
X134993569Y-112876810D01*
X134942560Y-113128700D01*
X134942560Y-113272300D01*
X130510000Y-113272300D01*
X130510000Y-95406700D01*
X132518498Y-95406700D01*
X131062599Y-96862599D01*
X131062599Y-96862599D01*
G37*
X131062599Y-96862599D02*
X130897852Y-97109161D01*
X130840000Y-97400000D01*
X130840000Y-109989950D01*
X130838001Y-110000000D01*
X130896004Y-110291604D01*
X131061185Y-110538815D01*
X132699185Y-112176815D01*
X132946395Y-112341996D01*
X133238000Y-112400000D01*
X134191364Y-112400000D01*
X134388110Y-112534431D01*
X134640000Y-112585440D01*
X135060000Y-112585440D01*
X135295317Y-112541162D01*
X135511441Y-112402090D01*
X135656431Y-112189890D01*
X135665833Y-112143464D01*
X135699185Y-112176816D01*
X135946396Y-112341997D01*
X136059910Y-112364576D01*
X136075910Y-112389441D01*
X136288110Y-112534431D01*
X136540000Y-112585440D01*
X136960000Y-112585440D01*
X137195317Y-112541162D01*
X137411441Y-112402090D01*
X137556431Y-112189890D01*
X137607440Y-111938000D01*
X137607440Y-111338000D01*
X137563162Y-111102683D01*
X137424090Y-110886559D01*
X137211890Y-110741569D01*
X136960000Y-110690560D01*
X136562000Y-110690560D01*
X136562000Y-110511040D01*
X136816000Y-110511040D01*
X137051317Y-110466762D01*
X137267441Y-110327690D01*
X137412431Y-110115490D01*
X137463440Y-109863600D01*
X137463440Y-108136400D01*
X137419162Y-107901083D01*
X137280090Y-107684959D01*
X137067890Y-107539969D01*
X137026561Y-107531600D01*
X137044415Y-107519670D01*
X137243312Y-107222000D01*
X137344370Y-107222000D01*
X138038000Y-107915631D01*
X138038000Y-112084369D01*
X137455670Y-112666700D01*
X136458636Y-112666700D01*
X136261890Y-112532269D01*
X136010000Y-112481260D01*
X135590000Y-112481260D01*
X135354683Y-112525538D01*
X135138559Y-112664610D01*
X134993569Y-112876810D01*
X134942560Y-113128700D01*
X134942560Y-113272300D01*
X130510000Y-113272300D01*
X130510000Y-95406700D01*
X132518498Y-95406700D01*
X131062599Y-96862599D01*
G36*
X141090000Y-113272300D02*
X139005331Y-113272300D01*
X139338815Y-112938816D01*
X139503996Y-112691605D01*
X139509366Y-112664610D01*
X139562000Y-112400000D01*
X139562000Y-111843137D01*
X141090000Y-111843137D01*
X141090000Y-113272300D01*
X141090000Y-113272300D01*
G37*
X141090000Y-113272300D02*
X139005331Y-113272300D01*
X139338815Y-112938816D01*
X139503996Y-112691605D01*
X139509366Y-112664610D01*
X139562000Y-112400000D01*
X139562000Y-111843137D01*
X141090000Y-111843137D01*
X141090000Y-113272300D01*
G36*
X132461185Y-108938815D02*
X133061185Y-109538815D01*
X133308395Y-109703996D01*
X133600000Y-109761999D01*
X133610050Y-109760000D01*
X134136560Y-109760000D01*
X134136560Y-109863600D01*
X134180838Y-110098917D01*
X134319910Y-110315041D01*
X134532110Y-110460031D01*
X134784000Y-110511040D01*
X135038000Y-110511040D01*
X135038000Y-110690560D01*
X134640000Y-110690560D01*
X134404683Y-110734838D01*
X134188559Y-110873910D01*
X134187131Y-110876000D01*
X133553630Y-110876000D01*
X132360000Y-109682370D01*
X132360000Y-108787381D01*
X132461185Y-108938815D01*
X132461185Y-108938815D01*
G37*
X132461185Y-108938815D02*
X133061185Y-109538815D01*
X133308395Y-109703996D01*
X133600000Y-109761999D01*
X133610050Y-109760000D01*
X134136560Y-109760000D01*
X134136560Y-109863600D01*
X134180838Y-110098917D01*
X134319910Y-110315041D01*
X134532110Y-110460031D01*
X134784000Y-110511040D01*
X135038000Y-110511040D01*
X135038000Y-110690560D01*
X134640000Y-110690560D01*
X134404683Y-110734838D01*
X134188559Y-110873910D01*
X134187131Y-110876000D01*
X133553630Y-110876000D01*
X132360000Y-109682370D01*
X132360000Y-108787381D01*
X132461185Y-108938815D01*
G36*
X134198110Y-99342911D02*
X134450000Y-99393920D01*
X135045080Y-99393920D01*
X135045080Y-99994815D01*
X135041766Y-99995474D01*
X134555585Y-100320330D01*
X134230729Y-100806511D01*
X134116655Y-101380000D01*
X134230729Y-101953489D01*
X134555585Y-102439670D01*
X134870366Y-102650000D01*
X134555585Y-102860330D01*
X134230729Y-103346511D01*
X134116655Y-103920000D01*
X134230729Y-104493489D01*
X134555585Y-104979670D01*
X134870366Y-105190000D01*
X134555585Y-105400330D01*
X134230729Y-105886511D01*
X134116655Y-106460000D01*
X134230729Y-107033489D01*
X134555585Y-107519670D01*
X134569913Y-107529243D01*
X134548683Y-107533238D01*
X134332559Y-107672310D01*
X134187569Y-107884510D01*
X134136560Y-108136400D01*
X134136560Y-108240000D01*
X133917630Y-108240000D01*
X133762000Y-108084370D01*
X133762000Y-99515630D01*
X134041634Y-99235996D01*
X134198110Y-99342911D01*
X134198110Y-99342911D01*
G37*
X134198110Y-99342911D02*
X134450000Y-99393920D01*
X135045080Y-99393920D01*
X135045080Y-99994815D01*
X135041766Y-99995474D01*
X134555585Y-100320330D01*
X134230729Y-100806511D01*
X134116655Y-101380000D01*
X134230729Y-101953489D01*
X134555585Y-102439670D01*
X134870366Y-102650000D01*
X134555585Y-102860330D01*
X134230729Y-103346511D01*
X134116655Y-103920000D01*
X134230729Y-104493489D01*
X134555585Y-104979670D01*
X134870366Y-105190000D01*
X134555585Y-105400330D01*
X134230729Y-105886511D01*
X134116655Y-106460000D01*
X134230729Y-107033489D01*
X134555585Y-107519670D01*
X134569913Y-107529243D01*
X134548683Y-107533238D01*
X134332559Y-107672310D01*
X134187569Y-107884510D01*
X134136560Y-108136400D01*
X134136560Y-108240000D01*
X133917630Y-108240000D01*
X133762000Y-108084370D01*
X133762000Y-99515630D01*
X134041634Y-99235996D01*
X134198110Y-99342911D01*
G36*
X141090000Y-106156863D02*
X138434493Y-106156863D01*
X138198815Y-105921185D01*
X138146922Y-105886511D01*
X137951605Y-105756004D01*
X137660000Y-105698000D01*
X137243312Y-105698000D01*
X137044415Y-105400330D01*
X136729634Y-105190000D01*
X137044415Y-104979670D01*
X137243312Y-104682000D01*
X137880000Y-104682000D01*
X138171605Y-104623996D01*
X138418815Y-104458815D01*
X139338815Y-103538816D01*
X139503996Y-103291605D01*
X139519034Y-103216004D01*
X139536067Y-103130375D01*
X141090000Y-103130375D01*
X141090000Y-106156863D01*
X141090000Y-106156863D01*
G37*
X141090000Y-106156863D02*
X138434493Y-106156863D01*
X138198815Y-105921185D01*
X138146922Y-105886511D01*
X137951605Y-105756004D01*
X137660000Y-105698000D01*
X137243312Y-105698000D01*
X137044415Y-105400330D01*
X136729634Y-105190000D01*
X137044415Y-104979670D01*
X137243312Y-104682000D01*
X137880000Y-104682000D01*
X138171605Y-104623996D01*
X138418815Y-104458815D01*
X139338815Y-103538816D01*
X139503996Y-103291605D01*
X139519034Y-103216004D01*
X139536067Y-103130375D01*
X141090000Y-103130375D01*
X141090000Y-106156863D01*
G36*
X138038000Y-99515630D02*
X138038000Y-102684369D01*
X137564370Y-103158000D01*
X137243312Y-103158000D01*
X137044415Y-102860330D01*
X136729634Y-102650000D01*
X137044415Y-102439670D01*
X137369271Y-101953489D01*
X137483345Y-101380000D01*
X137369271Y-100806511D01*
X137044415Y-100320330D01*
X136565080Y-100000048D01*
X136565080Y-99393920D01*
X137150000Y-99393920D01*
X137385317Y-99349642D01*
X137601441Y-99210570D01*
X137654819Y-99132449D01*
X138038000Y-99515630D01*
X138038000Y-99515630D01*
G37*
X138038000Y-99515630D02*
X138038000Y-102684369D01*
X137564370Y-103158000D01*
X137243312Y-103158000D01*
X137044415Y-102860330D01*
X136729634Y-102650000D01*
X137044415Y-102439670D01*
X137369271Y-101953489D01*
X137483345Y-101380000D01*
X137369271Y-100806511D01*
X137044415Y-100320330D01*
X136565080Y-100000048D01*
X136565080Y-99393920D01*
X137150000Y-99393920D01*
X137385317Y-99349642D01*
X137601441Y-99210570D01*
X137654819Y-99132449D01*
X138038000Y-99515630D01*
G36*
X141090000Y-99669625D02*
X139562000Y-99669625D01*
X139562000Y-99200000D01*
X139503996Y-98908395D01*
X139338815Y-98661185D01*
X138385295Y-97707665D01*
X138360113Y-97690839D01*
X138138085Y-97542484D01*
X137846480Y-97484480D01*
X137735992Y-97484480D01*
X137614090Y-97295039D01*
X137401890Y-97150049D01*
X137150000Y-97099040D01*
X136565080Y-97099040D01*
X136565080Y-96759891D01*
X136656521Y-96701050D01*
X136801511Y-96488850D01*
X136852520Y-96236960D01*
X136852520Y-95406700D01*
X141090000Y-95406700D01*
X141090000Y-99669625D01*
X141090000Y-99669625D01*
G37*
X141090000Y-99669625D02*
X139562000Y-99669625D01*
X139562000Y-99200000D01*
X139503996Y-98908395D01*
X139338815Y-98661185D01*
X138385295Y-97707665D01*
X138360113Y-97690839D01*
X138138085Y-97542484D01*
X137846480Y-97484480D01*
X137735992Y-97484480D01*
X137614090Y-97295039D01*
X137401890Y-97150049D01*
X137150000Y-97099040D01*
X136565080Y-97099040D01*
X136565080Y-96759891D01*
X136656521Y-96701050D01*
X136801511Y-96488850D01*
X136852520Y-96236960D01*
X136852520Y-95406700D01*
X141090000Y-95406700D01*
X141090000Y-99669625D01*
G36*
X134940990Y-96688401D02*
X135045080Y-96759523D01*
X135045080Y-97099040D01*
X134450000Y-97099040D01*
X134214683Y-97143318D01*
X133998559Y-97282390D01*
X133853569Y-97494590D01*
X133851507Y-97504772D01*
X133661916Y-97542484D01*
X133414705Y-97707665D01*
X132461185Y-98661185D01*
X132360000Y-98812619D01*
X132360000Y-97714802D01*
X133577842Y-96496960D01*
X134817801Y-96496960D01*
X134940990Y-96688401D01*
X134940990Y-96688401D01*
G37*
X134940990Y-96688401D02*
X135045080Y-96759523D01*
X135045080Y-97099040D01*
X134450000Y-97099040D01*
X134214683Y-97143318D01*
X133998559Y-97282390D01*
X133853569Y-97494590D01*
X133851507Y-97504772D01*
X133661916Y-97542484D01*
X133414705Y-97707665D01*
X132461185Y-98661185D01*
X132360000Y-98812619D01*
X132360000Y-97714802D01*
X133577842Y-96496960D01*
X134817801Y-96496960D01*
X134940990Y-96688401D01*
M02*
