G04 #@! TF.FileFunction,Copper,L1,Top,Signal*
%FSLAX46Y46*%
G04 Gerber Fmt 4.6, Leading zero omitted, Abs format (unit mm)*
G04 Created by KiCad (PCBNEW 4.0.2-1.fc23-product) date Wed 05 Oct 2016 06:56:58 PM PDT*
%MOMM*%
G01*
G04 APERTURE LIST*
%ADD10C,0.100000*%
%ADD11C,0.300000*%
%ADD12C,0.121000*%
%ADD13R,0.800000X1.000000*%
%ADD14R,2.032000X1.727200*%
%ADD15O,2.032000X1.727200*%
%ADD16R,0.420000X0.600000*%
%ADD17C,0.254000*%
%ADD18C,0.250000*%
G04 APERTURE END LIST*
D10*
D11*
X139578571Y-110428571D02*
X141078571Y-109928571D01*
X139578571Y-109428571D01*
X140507143Y-108928571D02*
X140507143Y-107785714D01*
X141078571Y-108357143D02*
X139935714Y-108357143D01*
X139650000Y-101007143D02*
X139578571Y-101150000D01*
X139578571Y-101364286D01*
X139650000Y-101578571D01*
X139792857Y-101721429D01*
X139935714Y-101792857D01*
X140221429Y-101864286D01*
X140435714Y-101864286D01*
X140721429Y-101792857D01*
X140864286Y-101721429D01*
X141007143Y-101578571D01*
X141078571Y-101364286D01*
X141078571Y-101221429D01*
X141007143Y-101007143D01*
X140935714Y-100935714D01*
X140435714Y-100935714D01*
X140435714Y-101221429D01*
D12*
X130344000Y-94080667D02*
X130816381Y-94080667D01*
X130249524Y-94218952D02*
X130580191Y-93734952D01*
X130910858Y-94218952D01*
X131241524Y-94218952D02*
X131241524Y-93734952D01*
X131241524Y-93965429D02*
X131808382Y-93965429D01*
X131808382Y-94218952D02*
X131808382Y-93734952D01*
X132800382Y-94218952D02*
X132233524Y-94218952D01*
X132516953Y-94218952D02*
X132516953Y-93734952D01*
X132422477Y-93804095D01*
X132328001Y-93850190D01*
X132233524Y-93873238D01*
X133367239Y-93942381D02*
X133272763Y-93919333D01*
X133225524Y-93896286D01*
X133178286Y-93850190D01*
X133178286Y-93827143D01*
X133225524Y-93781048D01*
X133272763Y-93758000D01*
X133367239Y-93734952D01*
X133556191Y-93734952D01*
X133650667Y-93758000D01*
X133697905Y-93781048D01*
X133745144Y-93827143D01*
X133745144Y-93850190D01*
X133697905Y-93896286D01*
X133650667Y-93919333D01*
X133556191Y-93942381D01*
X133367239Y-93942381D01*
X133272763Y-93965429D01*
X133225524Y-93988476D01*
X133178286Y-94034571D01*
X133178286Y-94126762D01*
X133225524Y-94172857D01*
X133272763Y-94195905D01*
X133367239Y-94218952D01*
X133556191Y-94218952D01*
X133650667Y-94195905D01*
X133697905Y-94172857D01*
X133745144Y-94126762D01*
X133745144Y-94034571D01*
X133697905Y-93988476D01*
X133650667Y-93965429D01*
X133556191Y-93942381D01*
X134359239Y-93734952D02*
X134453715Y-93734952D01*
X134548191Y-93758000D01*
X134595429Y-93781048D01*
X134642667Y-93827143D01*
X134689906Y-93919333D01*
X134689906Y-94034571D01*
X134642667Y-94126762D01*
X134595429Y-94172857D01*
X134548191Y-94195905D01*
X134453715Y-94218952D01*
X134359239Y-94218952D01*
X134264763Y-94195905D01*
X134217525Y-94172857D01*
X134170286Y-94126762D01*
X134123048Y-94034571D01*
X134123048Y-93919333D01*
X134170286Y-93827143D01*
X134217525Y-93781048D01*
X134264763Y-93758000D01*
X134359239Y-93734952D01*
X135115048Y-94218952D02*
X135115048Y-93734952D01*
X135681906Y-94218952D01*
X135681906Y-93734952D01*
X136154286Y-94034571D02*
X136910096Y-94034571D01*
X137288000Y-93734952D02*
X137524191Y-94218952D01*
X137713143Y-93873238D01*
X137902096Y-94218952D01*
X138138286Y-93734952D01*
X139035810Y-93758000D02*
X138941333Y-93734952D01*
X138799619Y-93734952D01*
X138657905Y-93758000D01*
X138563429Y-93804095D01*
X138516190Y-93850190D01*
X138468952Y-93942381D01*
X138468952Y-94011524D01*
X138516190Y-94103714D01*
X138563429Y-94149810D01*
X138657905Y-94195905D01*
X138799619Y-94218952D01*
X138894095Y-94218952D01*
X139035810Y-94195905D01*
X139083048Y-94172857D01*
X139083048Y-94011524D01*
X138894095Y-94011524D01*
X139508190Y-94034571D02*
X140264000Y-94034571D01*
X140641904Y-93734952D02*
X141303238Y-93734952D01*
X140878095Y-94218952D01*
X130509332Y-114334952D02*
X131076189Y-114334952D01*
X130792761Y-114818952D02*
X130792761Y-114334952D01*
X131973714Y-114772857D02*
X131926476Y-114795905D01*
X131784761Y-114818952D01*
X131690285Y-114818952D01*
X131548571Y-114795905D01*
X131454095Y-114749810D01*
X131406856Y-114703714D01*
X131359618Y-114611524D01*
X131359618Y-114542381D01*
X131406856Y-114450190D01*
X131454095Y-114404095D01*
X131548571Y-114358000D01*
X131690285Y-114334952D01*
X131784761Y-114334952D01*
X131926476Y-114358000D01*
X131973714Y-114381048D01*
X132351618Y-114795905D02*
X132493333Y-114818952D01*
X132729523Y-114818952D01*
X132823999Y-114795905D01*
X132871237Y-114772857D01*
X132918476Y-114726762D01*
X132918476Y-114680667D01*
X132871237Y-114634571D01*
X132823999Y-114611524D01*
X132729523Y-114588476D01*
X132540571Y-114565429D01*
X132446095Y-114542381D01*
X132398856Y-114519333D01*
X132351618Y-114473238D01*
X132351618Y-114427143D01*
X132398856Y-114381048D01*
X132446095Y-114358000D01*
X132540571Y-114334952D01*
X132776761Y-114334952D01*
X132918476Y-114358000D01*
X133768761Y-114496286D02*
X133768761Y-114818952D01*
X133532571Y-114311905D02*
X133296380Y-114657619D01*
X133910476Y-114657619D01*
X134477333Y-114334952D02*
X134571809Y-114334952D01*
X134666285Y-114358000D01*
X134713523Y-114381048D01*
X134760761Y-114427143D01*
X134808000Y-114519333D01*
X134808000Y-114634571D01*
X134760761Y-114726762D01*
X134713523Y-114772857D01*
X134666285Y-114795905D01*
X134571809Y-114818952D01*
X134477333Y-114818952D01*
X134382857Y-114795905D01*
X134335619Y-114772857D01*
X134288380Y-114726762D01*
X134241142Y-114634571D01*
X134241142Y-114519333D01*
X134288380Y-114427143D01*
X134335619Y-114381048D01*
X134382857Y-114358000D01*
X134477333Y-114334952D01*
X135233142Y-114818952D02*
X135233142Y-114334952D01*
X135469333Y-114334952D01*
X135611047Y-114358000D01*
X135705523Y-114404095D01*
X135752762Y-114450190D01*
X135800000Y-114542381D01*
X135800000Y-114611524D01*
X135752762Y-114703714D01*
X135705523Y-114749810D01*
X135611047Y-114795905D01*
X135469333Y-114818952D01*
X135233142Y-114818952D01*
X136697523Y-114818952D02*
X136225142Y-114818952D01*
X136225142Y-114334952D01*
X137595048Y-114818952D02*
X137264381Y-114588476D01*
X137028190Y-114818952D02*
X137028190Y-114334952D01*
X137406095Y-114334952D01*
X137500571Y-114358000D01*
X137547810Y-114381048D01*
X137595048Y-114427143D01*
X137595048Y-114496286D01*
X137547810Y-114542381D01*
X137500571Y-114565429D01*
X137406095Y-114588476D01*
X137028190Y-114588476D01*
X138492571Y-114818952D02*
X138020190Y-114818952D01*
X138020190Y-114334952D01*
X139153905Y-114565429D02*
X138823238Y-114565429D01*
X138823238Y-114818952D02*
X138823238Y-114334952D01*
X139295619Y-114334952D01*
X140240382Y-114772857D02*
X140193144Y-114795905D01*
X140051429Y-114818952D01*
X139956953Y-114818952D01*
X139815239Y-114795905D01*
X139720763Y-114749810D01*
X139673524Y-114703714D01*
X139626286Y-114611524D01*
X139626286Y-114542381D01*
X139673524Y-114450190D01*
X139720763Y-114404095D01*
X139815239Y-114358000D01*
X139956953Y-114334952D01*
X140051429Y-114334952D01*
X140193144Y-114358000D01*
X140240382Y-114381048D01*
X140523810Y-114334952D02*
X141090667Y-114334952D01*
X140807239Y-114818952D02*
X140807239Y-114334952D01*
D13*
X134850000Y-98246480D03*
X135805080Y-95736960D03*
X136750000Y-98246480D03*
D14*
X135800000Y-109000000D03*
D15*
X135800000Y-106460000D03*
X135800000Y-103920000D03*
X135800000Y-101380000D03*
D16*
X136750000Y-111638000D03*
X134850000Y-111638000D03*
X135800000Y-113428700D03*
D17*
X136750000Y-111638000D02*
X136238000Y-111638000D01*
X135800000Y-111200000D02*
X135800000Y-109000000D01*
X136238000Y-111638000D02*
X135800000Y-111200000D01*
D18*
X134850000Y-98246480D02*
X133953520Y-98246480D01*
X133600000Y-109000000D02*
X135800000Y-109000000D01*
D17*
X133000000Y-108400000D02*
X133600000Y-109000000D01*
X133000000Y-99200000D02*
X133000000Y-108400000D01*
X133953520Y-98246480D02*
X133000000Y-99200000D01*
D18*
X135805080Y-95736960D02*
X133263040Y-95736960D01*
D17*
X133238000Y-111638000D02*
X134850000Y-111638000D01*
X131600000Y-110000000D02*
X133238000Y-111638000D01*
D18*
X131600000Y-97400000D02*
X131600000Y-110000000D01*
X133263040Y-95736960D02*
X131600000Y-97400000D01*
X135805080Y-95736960D02*
X135805080Y-101374920D01*
X135805080Y-101374920D02*
X135800000Y-101380000D01*
D17*
X136750000Y-98246480D02*
X137846480Y-98246480D01*
X137880000Y-103920000D02*
X135800000Y-103920000D01*
X138800000Y-103000000D02*
X137880000Y-103920000D01*
X138800000Y-99200000D02*
X138800000Y-103000000D01*
X137846480Y-98246480D02*
X138800000Y-99200000D01*
X135800000Y-106460000D02*
X137660000Y-106460000D01*
X137771300Y-113428700D02*
X135800000Y-113428700D01*
X138800000Y-112400000D02*
X137771300Y-113428700D01*
X138800000Y-107600000D02*
X138800000Y-112400000D01*
X137660000Y-106460000D02*
X138800000Y-107600000D01*
G36*
X132972201Y-95034812D02*
X132725639Y-95199559D01*
X131062599Y-96862599D01*
X130897852Y-97109161D01*
X130840000Y-97400000D01*
X130840000Y-109989950D01*
X130838001Y-110000000D01*
X130896004Y-110291604D01*
X131061185Y-110538815D01*
X132699185Y-112176815D01*
X132946395Y-112341996D01*
X133238000Y-112400000D01*
X134191364Y-112400000D01*
X134388110Y-112534431D01*
X134640000Y-112585440D01*
X135060000Y-112585440D01*
X135295317Y-112541162D01*
X135511441Y-112402090D01*
X135656431Y-112189890D01*
X135665833Y-112143464D01*
X135699185Y-112176816D01*
X135946396Y-112341997D01*
X136059910Y-112364576D01*
X136075910Y-112389441D01*
X136288110Y-112534431D01*
X136540000Y-112585440D01*
X136960000Y-112585440D01*
X137195317Y-112541162D01*
X137411441Y-112402090D01*
X137556431Y-112189890D01*
X137607440Y-111938000D01*
X137607440Y-111338000D01*
X137563162Y-111102683D01*
X137424090Y-110886559D01*
X137211890Y-110741569D01*
X136960000Y-110690560D01*
X136562000Y-110690560D01*
X136562000Y-110511040D01*
X136816000Y-110511040D01*
X137051317Y-110466762D01*
X137267441Y-110327690D01*
X137412431Y-110115490D01*
X137463440Y-109863600D01*
X137463440Y-108136400D01*
X137419162Y-107901083D01*
X137280090Y-107684959D01*
X137067890Y-107539969D01*
X137026561Y-107531600D01*
X137044415Y-107519670D01*
X137243312Y-107222000D01*
X137344370Y-107222000D01*
X138038000Y-107915631D01*
X138038000Y-112084369D01*
X137455670Y-112666700D01*
X136458636Y-112666700D01*
X136261890Y-112532269D01*
X136010000Y-112481260D01*
X135590000Y-112481260D01*
X135354683Y-112525538D01*
X135138559Y-112664610D01*
X134993569Y-112876810D01*
X134942560Y-113128700D01*
X134942560Y-113444700D01*
X130510000Y-113444700D01*
X130510000Y-95034300D01*
X132974775Y-95034300D01*
X132972201Y-95034812D01*
X132972201Y-95034812D01*
G37*
X132972201Y-95034812D02*
X132725639Y-95199559D01*
X131062599Y-96862599D01*
X130897852Y-97109161D01*
X130840000Y-97400000D01*
X130840000Y-109989950D01*
X130838001Y-110000000D01*
X130896004Y-110291604D01*
X131061185Y-110538815D01*
X132699185Y-112176815D01*
X132946395Y-112341996D01*
X133238000Y-112400000D01*
X134191364Y-112400000D01*
X134388110Y-112534431D01*
X134640000Y-112585440D01*
X135060000Y-112585440D01*
X135295317Y-112541162D01*
X135511441Y-112402090D01*
X135656431Y-112189890D01*
X135665833Y-112143464D01*
X135699185Y-112176816D01*
X135946396Y-112341997D01*
X136059910Y-112364576D01*
X136075910Y-112389441D01*
X136288110Y-112534431D01*
X136540000Y-112585440D01*
X136960000Y-112585440D01*
X137195317Y-112541162D01*
X137411441Y-112402090D01*
X137556431Y-112189890D01*
X137607440Y-111938000D01*
X137607440Y-111338000D01*
X137563162Y-111102683D01*
X137424090Y-110886559D01*
X137211890Y-110741569D01*
X136960000Y-110690560D01*
X136562000Y-110690560D01*
X136562000Y-110511040D01*
X136816000Y-110511040D01*
X137051317Y-110466762D01*
X137267441Y-110327690D01*
X137412431Y-110115490D01*
X137463440Y-109863600D01*
X137463440Y-108136400D01*
X137419162Y-107901083D01*
X137280090Y-107684959D01*
X137067890Y-107539969D01*
X137026561Y-107531600D01*
X137044415Y-107519670D01*
X137243312Y-107222000D01*
X137344370Y-107222000D01*
X138038000Y-107915631D01*
X138038000Y-112084369D01*
X137455670Y-112666700D01*
X136458636Y-112666700D01*
X136261890Y-112532269D01*
X136010000Y-112481260D01*
X135590000Y-112481260D01*
X135354683Y-112525538D01*
X135138559Y-112664610D01*
X134993569Y-112876810D01*
X134942560Y-113128700D01*
X134942560Y-113444700D01*
X130510000Y-113444700D01*
X130510000Y-95034300D01*
X132974775Y-95034300D01*
X132972201Y-95034812D01*
G36*
X141090000Y-113444700D02*
X138832931Y-113444700D01*
X139338815Y-112938816D01*
X139503996Y-112691605D01*
X139509366Y-112664610D01*
X139562000Y-112400000D01*
X139562000Y-111356428D01*
X141090000Y-111356428D01*
X141090000Y-113444700D01*
X141090000Y-113444700D01*
G37*
X141090000Y-113444700D02*
X138832931Y-113444700D01*
X139338815Y-112938816D01*
X139503996Y-112691605D01*
X139509366Y-112664610D01*
X139562000Y-112400000D01*
X139562000Y-111356428D01*
X141090000Y-111356428D01*
X141090000Y-113444700D01*
G36*
X132461185Y-108938815D02*
X133061185Y-109538815D01*
X133308395Y-109703996D01*
X133600000Y-109761999D01*
X133610050Y-109760000D01*
X134136560Y-109760000D01*
X134136560Y-109863600D01*
X134180838Y-110098917D01*
X134319910Y-110315041D01*
X134532110Y-110460031D01*
X134784000Y-110511040D01*
X135038000Y-110511040D01*
X135038000Y-110690560D01*
X134640000Y-110690560D01*
X134404683Y-110734838D01*
X134188559Y-110873910D01*
X134187131Y-110876000D01*
X133553630Y-110876000D01*
X132360000Y-109682370D01*
X132360000Y-108787381D01*
X132461185Y-108938815D01*
X132461185Y-108938815D01*
G37*
X132461185Y-108938815D02*
X133061185Y-109538815D01*
X133308395Y-109703996D01*
X133600000Y-109761999D01*
X133610050Y-109760000D01*
X134136560Y-109760000D01*
X134136560Y-109863600D01*
X134180838Y-110098917D01*
X134319910Y-110315041D01*
X134532110Y-110460031D01*
X134784000Y-110511040D01*
X135038000Y-110511040D01*
X135038000Y-110690560D01*
X134640000Y-110690560D01*
X134404683Y-110734838D01*
X134188559Y-110873910D01*
X134187131Y-110876000D01*
X133553630Y-110876000D01*
X132360000Y-109682370D01*
X132360000Y-108787381D01*
X132461185Y-108938815D01*
G36*
X134198110Y-99342911D02*
X134450000Y-99393920D01*
X135045080Y-99393920D01*
X135045080Y-99994815D01*
X135041766Y-99995474D01*
X134555585Y-100320330D01*
X134230729Y-100806511D01*
X134116655Y-101380000D01*
X134230729Y-101953489D01*
X134555585Y-102439670D01*
X134870366Y-102650000D01*
X134555585Y-102860330D01*
X134230729Y-103346511D01*
X134116655Y-103920000D01*
X134230729Y-104493489D01*
X134555585Y-104979670D01*
X134870366Y-105190000D01*
X134555585Y-105400330D01*
X134230729Y-105886511D01*
X134116655Y-106460000D01*
X134230729Y-107033489D01*
X134555585Y-107519670D01*
X134569913Y-107529243D01*
X134548683Y-107533238D01*
X134332559Y-107672310D01*
X134187569Y-107884510D01*
X134136560Y-108136400D01*
X134136560Y-108240000D01*
X133917630Y-108240000D01*
X133762000Y-108084370D01*
X133762000Y-99515630D01*
X134041634Y-99235996D01*
X134198110Y-99342911D01*
X134198110Y-99342911D01*
G37*
X134198110Y-99342911D02*
X134450000Y-99393920D01*
X135045080Y-99393920D01*
X135045080Y-99994815D01*
X135041766Y-99995474D01*
X134555585Y-100320330D01*
X134230729Y-100806511D01*
X134116655Y-101380000D01*
X134230729Y-101953489D01*
X134555585Y-102439670D01*
X134870366Y-102650000D01*
X134555585Y-102860330D01*
X134230729Y-103346511D01*
X134116655Y-103920000D01*
X134230729Y-104493489D01*
X134555585Y-104979670D01*
X134870366Y-105190000D01*
X134555585Y-105400330D01*
X134230729Y-105886511D01*
X134116655Y-106460000D01*
X134230729Y-107033489D01*
X134555585Y-107519670D01*
X134569913Y-107529243D01*
X134548683Y-107533238D01*
X134332559Y-107672310D01*
X134187569Y-107884510D01*
X134136560Y-108136400D01*
X134136560Y-108240000D01*
X133917630Y-108240000D01*
X133762000Y-108084370D01*
X133762000Y-99515630D01*
X134041634Y-99235996D01*
X134198110Y-99342911D01*
G36*
X141090000Y-106643571D02*
X138921202Y-106643571D01*
X138198815Y-105921185D01*
X138146922Y-105886511D01*
X137951605Y-105756004D01*
X137660000Y-105698000D01*
X137243312Y-105698000D01*
X137044415Y-105400330D01*
X136729634Y-105190000D01*
X137044415Y-104979670D01*
X137243312Y-104682000D01*
X137880000Y-104682000D01*
X138171605Y-104623996D01*
X138418815Y-104458815D01*
X139338815Y-103538816D01*
X139503996Y-103291605D01*
X139519034Y-103216004D01*
X139562000Y-103000000D01*
X139562000Y-102935000D01*
X141090000Y-102935000D01*
X141090000Y-106643571D01*
X141090000Y-106643571D01*
G37*
X141090000Y-106643571D02*
X138921202Y-106643571D01*
X138198815Y-105921185D01*
X138146922Y-105886511D01*
X137951605Y-105756004D01*
X137660000Y-105698000D01*
X137243312Y-105698000D01*
X137044415Y-105400330D01*
X136729634Y-105190000D01*
X137044415Y-104979670D01*
X137243312Y-104682000D01*
X137880000Y-104682000D01*
X138171605Y-104623996D01*
X138418815Y-104458815D01*
X139338815Y-103538816D01*
X139503996Y-103291605D01*
X139519034Y-103216004D01*
X139562000Y-103000000D01*
X139562000Y-102935000D01*
X141090000Y-102935000D01*
X141090000Y-106643571D01*
G36*
X138038000Y-99515630D02*
X138038000Y-102684369D01*
X137564370Y-103158000D01*
X137243312Y-103158000D01*
X137044415Y-102860330D01*
X136729634Y-102650000D01*
X137044415Y-102439670D01*
X137369271Y-101953489D01*
X137483345Y-101380000D01*
X137369271Y-100806511D01*
X137044415Y-100320330D01*
X136565080Y-100000048D01*
X136565080Y-99393920D01*
X137150000Y-99393920D01*
X137385317Y-99349642D01*
X137601441Y-99210570D01*
X137654819Y-99132449D01*
X138038000Y-99515630D01*
X138038000Y-99515630D01*
G37*
X138038000Y-99515630D02*
X138038000Y-102684369D01*
X137564370Y-103158000D01*
X137243312Y-103158000D01*
X137044415Y-102860330D01*
X136729634Y-102650000D01*
X137044415Y-102439670D01*
X137369271Y-101953489D01*
X137483345Y-101380000D01*
X137369271Y-100806511D01*
X137044415Y-100320330D01*
X136565080Y-100000048D01*
X136565080Y-99393920D01*
X137150000Y-99393920D01*
X137385317Y-99349642D01*
X137601441Y-99210570D01*
X137654819Y-99132449D01*
X138038000Y-99515630D01*
G36*
X141090000Y-99865000D02*
X139562000Y-99865000D01*
X139562000Y-99200000D01*
X139503996Y-98908395D01*
X139338815Y-98661185D01*
X138385295Y-97707665D01*
X138360113Y-97690839D01*
X138138085Y-97542484D01*
X137846480Y-97484480D01*
X137735992Y-97484480D01*
X137614090Y-97295039D01*
X137401890Y-97150049D01*
X137150000Y-97099040D01*
X136565080Y-97099040D01*
X136565080Y-96759891D01*
X136656521Y-96701050D01*
X136801511Y-96488850D01*
X136852520Y-96236960D01*
X136852520Y-95236960D01*
X136814387Y-95034300D01*
X141090000Y-95034300D01*
X141090000Y-99865000D01*
X141090000Y-99865000D01*
G37*
X141090000Y-99865000D02*
X139562000Y-99865000D01*
X139562000Y-99200000D01*
X139503996Y-98908395D01*
X139338815Y-98661185D01*
X138385295Y-97707665D01*
X138360113Y-97690839D01*
X138138085Y-97542484D01*
X137846480Y-97484480D01*
X137735992Y-97484480D01*
X137614090Y-97295039D01*
X137401890Y-97150049D01*
X137150000Y-97099040D01*
X136565080Y-97099040D01*
X136565080Y-96759891D01*
X136656521Y-96701050D01*
X136801511Y-96488850D01*
X136852520Y-96236960D01*
X136852520Y-95236960D01*
X136814387Y-95034300D01*
X141090000Y-95034300D01*
X141090000Y-99865000D01*
G36*
X134940990Y-96688401D02*
X135045080Y-96759523D01*
X135045080Y-97099040D01*
X134450000Y-97099040D01*
X134214683Y-97143318D01*
X133998559Y-97282390D01*
X133853569Y-97494590D01*
X133851507Y-97504772D01*
X133661916Y-97542484D01*
X133414705Y-97707665D01*
X132461185Y-98661185D01*
X132360000Y-98812619D01*
X132360000Y-97714802D01*
X133577842Y-96496960D01*
X134817801Y-96496960D01*
X134940990Y-96688401D01*
X134940990Y-96688401D01*
G37*
X134940990Y-96688401D02*
X135045080Y-96759523D01*
X135045080Y-97099040D01*
X134450000Y-97099040D01*
X134214683Y-97143318D01*
X133998559Y-97282390D01*
X133853569Y-97494590D01*
X133851507Y-97504772D01*
X133661916Y-97542484D01*
X133414705Y-97707665D01*
X132461185Y-98661185D01*
X132360000Y-98812619D01*
X132360000Y-97714802D01*
X133577842Y-96496960D01*
X134817801Y-96496960D01*
X134940990Y-96688401D01*
M02*
