G04 #@! TF.FileFunction,Legend,Bot*
%FSLAX46Y46*%
G04 Gerber Fmt 4.6, Leading zero omitted, Abs format (unit mm)*
G04 Created by KiCad (PCBNEW 4.0.6) date Tue May 30 16:02:55 2017*
%MOMM*%
%LPD*%
G01*
G04 APERTURE LIST*
%ADD10C,0.100000*%
%ADD11C,0.158750*%
%ADD12C,0.127000*%
G04 APERTURE END LIST*
D10*
D11*
X152298929Y-84512012D02*
X152359405Y-84481774D01*
X152389644Y-84451536D01*
X152419882Y-84391060D01*
X152419882Y-84209631D01*
X152389644Y-84149155D01*
X152359405Y-84118917D01*
X152298929Y-84088679D01*
X152208215Y-84088679D01*
X152147739Y-84118917D01*
X152117501Y-84149155D01*
X152087263Y-84209631D01*
X152087263Y-84391060D01*
X152117501Y-84451536D01*
X152147739Y-84481774D01*
X152208215Y-84512012D01*
X152298929Y-84512012D01*
X151815120Y-84088679D02*
X151815120Y-84723679D01*
X151815120Y-84118917D02*
X151754643Y-84088679D01*
X151633691Y-84088679D01*
X151573215Y-84118917D01*
X151542977Y-84149155D01*
X151512739Y-84209631D01*
X151512739Y-84391060D01*
X151542977Y-84451536D01*
X151573215Y-84481774D01*
X151633691Y-84512012D01*
X151754643Y-84512012D01*
X151815120Y-84481774D01*
X150998691Y-84481774D02*
X151059167Y-84512012D01*
X151180119Y-84512012D01*
X151240596Y-84481774D01*
X151270834Y-84421298D01*
X151270834Y-84179393D01*
X151240596Y-84118917D01*
X151180119Y-84088679D01*
X151059167Y-84088679D01*
X150998691Y-84118917D01*
X150968453Y-84179393D01*
X150968453Y-84239869D01*
X151270834Y-84300345D01*
X150696310Y-84088679D02*
X150696310Y-84512012D01*
X150696310Y-84149155D02*
X150666071Y-84118917D01*
X150605595Y-84088679D01*
X150514881Y-84088679D01*
X150454405Y-84118917D01*
X150424167Y-84179393D01*
X150424167Y-84512012D01*
X152843215Y-85593024D02*
X152903691Y-85623262D01*
X153024643Y-85623262D01*
X153085119Y-85593024D01*
X153115358Y-85562786D01*
X153145596Y-85502310D01*
X153145596Y-85320881D01*
X153115358Y-85260405D01*
X153085119Y-85230167D01*
X153024643Y-85199929D01*
X152903691Y-85199929D01*
X152843215Y-85230167D01*
X152480357Y-85623262D02*
X152540833Y-85593024D01*
X152571072Y-85562786D01*
X152601310Y-85502310D01*
X152601310Y-85320881D01*
X152571072Y-85260405D01*
X152540833Y-85230167D01*
X152480357Y-85199929D01*
X152389643Y-85199929D01*
X152329167Y-85230167D01*
X152298929Y-85260405D01*
X152268691Y-85320881D01*
X152268691Y-85502310D01*
X152298929Y-85562786D01*
X152329167Y-85593024D01*
X152389643Y-85623262D01*
X152480357Y-85623262D01*
X151905833Y-85623262D02*
X151966309Y-85593024D01*
X151996548Y-85532548D01*
X151996548Y-84988262D01*
X151573214Y-85623262D02*
X151633690Y-85593024D01*
X151663929Y-85532548D01*
X151663929Y-84988262D01*
X151089405Y-85593024D02*
X151149881Y-85623262D01*
X151270833Y-85623262D01*
X151331310Y-85593024D01*
X151361548Y-85532548D01*
X151361548Y-85290643D01*
X151331310Y-85230167D01*
X151270833Y-85199929D01*
X151149881Y-85199929D01*
X151089405Y-85230167D01*
X151059167Y-85290643D01*
X151059167Y-85351119D01*
X151361548Y-85411595D01*
X150514881Y-85593024D02*
X150575357Y-85623262D01*
X150696309Y-85623262D01*
X150756785Y-85593024D01*
X150787024Y-85562786D01*
X150817262Y-85502310D01*
X150817262Y-85320881D01*
X150787024Y-85260405D01*
X150756785Y-85230167D01*
X150696309Y-85199929D01*
X150575357Y-85199929D01*
X150514881Y-85230167D01*
X150333452Y-85199929D02*
X150091547Y-85199929D01*
X150242738Y-84988262D02*
X150242738Y-85532548D01*
X150212499Y-85593024D01*
X150152023Y-85623262D01*
X150091547Y-85623262D01*
X149789166Y-85623262D02*
X149849642Y-85593024D01*
X149879881Y-85562786D01*
X149910119Y-85502310D01*
X149910119Y-85320881D01*
X149879881Y-85260405D01*
X149849642Y-85230167D01*
X149789166Y-85199929D01*
X149698452Y-85199929D01*
X149637976Y-85230167D01*
X149607738Y-85260405D01*
X149577500Y-85320881D01*
X149577500Y-85502310D01*
X149607738Y-85562786D01*
X149637976Y-85593024D01*
X149698452Y-85623262D01*
X149789166Y-85623262D01*
X149305357Y-85623262D02*
X149305357Y-85199929D01*
X149305357Y-85320881D02*
X149275118Y-85260405D01*
X149244880Y-85230167D01*
X149184404Y-85199929D01*
X149123928Y-85199929D01*
X154143453Y-86704274D02*
X154052738Y-86734512D01*
X153901548Y-86734512D01*
X153841072Y-86704274D01*
X153810834Y-86674036D01*
X153780595Y-86613560D01*
X153780595Y-86553083D01*
X153810834Y-86492607D01*
X153841072Y-86462369D01*
X153901548Y-86432131D01*
X154022500Y-86401893D01*
X154082976Y-86371655D01*
X154113215Y-86341417D01*
X154143453Y-86280940D01*
X154143453Y-86220464D01*
X154113215Y-86159988D01*
X154082976Y-86129750D01*
X154022500Y-86099512D01*
X153871310Y-86099512D01*
X153780595Y-86129750D01*
X153327024Y-86099512D02*
X153327024Y-86553083D01*
X153357262Y-86643798D01*
X153417738Y-86704274D01*
X153508453Y-86734512D01*
X153568929Y-86734512D01*
X152692023Y-86734512D02*
X153054881Y-86734512D01*
X152873452Y-86734512D02*
X152873452Y-86099512D01*
X152933928Y-86190226D01*
X152994404Y-86250702D01*
X153054881Y-86280940D01*
X152419881Y-86492607D02*
X151936071Y-86492607D01*
X151694167Y-86099512D02*
X151301071Y-86099512D01*
X151512738Y-86341417D01*
X151422024Y-86341417D01*
X151361548Y-86371655D01*
X151331310Y-86401893D01*
X151301071Y-86462369D01*
X151301071Y-86613560D01*
X151331310Y-86674036D01*
X151361548Y-86704274D01*
X151422024Y-86734512D01*
X151603452Y-86734512D01*
X151663929Y-86704274D01*
X151694167Y-86674036D01*
X150726548Y-86099512D02*
X151028929Y-86099512D01*
X151059167Y-86401893D01*
X151028929Y-86371655D01*
X150968452Y-86341417D01*
X150817262Y-86341417D01*
X150756786Y-86371655D01*
X150726548Y-86401893D01*
X150696309Y-86462369D01*
X150696309Y-86613560D01*
X150726548Y-86674036D01*
X150756786Y-86704274D01*
X150817262Y-86734512D01*
X150968452Y-86734512D01*
X151028929Y-86704274D01*
X151059167Y-86674036D01*
X150121786Y-86099512D02*
X150424167Y-86099512D01*
X150454405Y-86401893D01*
X150424167Y-86371655D01*
X150363690Y-86341417D01*
X150212500Y-86341417D01*
X150152024Y-86371655D01*
X150121786Y-86401893D01*
X150091547Y-86462369D01*
X150091547Y-86613560D01*
X150121786Y-86674036D01*
X150152024Y-86704274D01*
X150212500Y-86734512D01*
X150363690Y-86734512D01*
X150424167Y-86704274D01*
X150454405Y-86674036D01*
X149879881Y-86099512D02*
X149456547Y-86734512D01*
X149456547Y-86099512D02*
X149879881Y-86734512D01*
X149214643Y-86734512D02*
X149214643Y-86099512D01*
X148851785Y-86734512D01*
X148851785Y-86099512D01*
X148216785Y-86129750D02*
X148277262Y-86099512D01*
X148367976Y-86099512D01*
X148458690Y-86129750D01*
X148519166Y-86190226D01*
X148549405Y-86250702D01*
X148579643Y-86371655D01*
X148579643Y-86462369D01*
X148549405Y-86583321D01*
X148519166Y-86643798D01*
X148458690Y-86704274D01*
X148367976Y-86734512D01*
X148307500Y-86734512D01*
X148216785Y-86704274D01*
X148186547Y-86674036D01*
X148186547Y-86462369D01*
X148307500Y-86462369D01*
X155610000Y-91465262D02*
X155864000Y-91162881D01*
X156045428Y-91465262D02*
X156045428Y-90830262D01*
X155755143Y-90830262D01*
X155682571Y-90860500D01*
X155646286Y-90890738D01*
X155610000Y-90951214D01*
X155610000Y-91041929D01*
X155646286Y-91102405D01*
X155682571Y-91132643D01*
X155755143Y-91162881D01*
X156045428Y-91162881D01*
X155283428Y-91465262D02*
X155283428Y-90830262D01*
X154521429Y-90860500D02*
X154594000Y-90830262D01*
X154702857Y-90830262D01*
X154811714Y-90860500D01*
X154884286Y-90920976D01*
X154920571Y-90981452D01*
X154956857Y-91102405D01*
X154956857Y-91193119D01*
X154920571Y-91314071D01*
X154884286Y-91374548D01*
X154811714Y-91435024D01*
X154702857Y-91465262D01*
X154630286Y-91465262D01*
X154521429Y-91435024D01*
X154485143Y-91404786D01*
X154485143Y-91193119D01*
X154630286Y-91193119D01*
X154158571Y-91465262D02*
X154158571Y-90830262D01*
X154158571Y-91132643D02*
X153723143Y-91132643D01*
X153723143Y-91465262D02*
X153723143Y-90830262D01*
X153469143Y-90830262D02*
X153033714Y-90830262D01*
X153251428Y-91465262D02*
X153251428Y-90830262D01*
D12*
X151800000Y-90790953D02*
X151775810Y-90742572D01*
X151775810Y-90670000D01*
X151800000Y-90597429D01*
X151848381Y-90549048D01*
X151896762Y-90524857D01*
X151993524Y-90500667D01*
X152066095Y-90500667D01*
X152162857Y-90524857D01*
X152211238Y-90549048D01*
X152259619Y-90597429D01*
X152283810Y-90670000D01*
X152283810Y-90718381D01*
X152259619Y-90790953D01*
X152235429Y-90815143D01*
X152066095Y-90815143D01*
X152066095Y-90718381D01*
X152283810Y-91032857D02*
X151775810Y-91032857D01*
X152283810Y-91323143D01*
X151775810Y-91323143D01*
X152283810Y-91565047D02*
X151775810Y-91565047D01*
X151775810Y-91686000D01*
X151800000Y-91758571D01*
X151848381Y-91806952D01*
X151896762Y-91831143D01*
X151993524Y-91855333D01*
X152066095Y-91855333D01*
X152162857Y-91831143D01*
X152211238Y-91806952D01*
X152259619Y-91758571D01*
X152283810Y-91686000D01*
X152283810Y-91565047D01*
X149260000Y-90790953D02*
X149235810Y-90742572D01*
X149235810Y-90670000D01*
X149260000Y-90597429D01*
X149308381Y-90549048D01*
X149356762Y-90524857D01*
X149453524Y-90500667D01*
X149526095Y-90500667D01*
X149622857Y-90524857D01*
X149671238Y-90549048D01*
X149719619Y-90597429D01*
X149743810Y-90670000D01*
X149743810Y-90718381D01*
X149719619Y-90790953D01*
X149695429Y-90815143D01*
X149526095Y-90815143D01*
X149526095Y-90718381D01*
X149743810Y-91032857D02*
X149235810Y-91032857D01*
X149743810Y-91323143D01*
X149235810Y-91323143D01*
X149743810Y-91565047D02*
X149235810Y-91565047D01*
X149235810Y-91686000D01*
X149260000Y-91758571D01*
X149308381Y-91806952D01*
X149356762Y-91831143D01*
X149453524Y-91855333D01*
X149526095Y-91855333D01*
X149622857Y-91831143D01*
X149671238Y-91806952D01*
X149719619Y-91758571D01*
X149743810Y-91686000D01*
X149743810Y-91565047D01*
D11*
X147699714Y-91465262D02*
X148062571Y-91465262D01*
X148062571Y-90830262D01*
X147445714Y-91132643D02*
X147191714Y-91132643D01*
X147082857Y-91465262D02*
X147445714Y-91465262D01*
X147445714Y-90830262D01*
X147082857Y-90830262D01*
X146502285Y-91132643D02*
X146756285Y-91132643D01*
X146756285Y-91465262D02*
X146756285Y-90830262D01*
X146393428Y-90830262D01*
X146212000Y-90830262D02*
X145776571Y-90830262D01*
X145994285Y-91465262D02*
X145994285Y-90830262D01*
M02*
