G04 #@! TF.FileFunction,Copper,L1,Top,Signal*
%FSLAX46Y46*%
G04 Gerber Fmt 4.6, Leading zero omitted, Abs format (unit mm)*
G04 Created by KiCad (PCBNEW 4.0.6) date Tue May 30 16:02:55 2017*
%MOMM*%
%LPD*%
G01*
G04 APERTURE LIST*
%ADD10C,0.100000*%
%ADD11C,2.600000*%
%ADD12R,1.727200X2.032000*%
%ADD13O,1.727200X2.032000*%
%ADD14C,0.635000*%
%ADD15C,0.254000*%
G04 APERTURE END LIST*
D10*
D11*
X156200000Y-86600000D03*
X146200000Y-86600000D03*
X151200000Y-81600000D03*
D12*
X154600000Y-93800000D03*
D13*
X152060000Y-93800000D03*
X149520000Y-93800000D03*
X146980000Y-93800000D03*
D14*
X149520000Y-93800000D02*
X152060000Y-93800000D01*
X151200000Y-81600000D02*
X151200000Y-88600000D01*
X152060000Y-89460000D02*
X152060000Y-93800000D01*
X151200000Y-88600000D02*
X152060000Y-89460000D01*
X146200000Y-86600000D02*
X146200000Y-88800000D01*
X146200000Y-88800000D02*
X146980000Y-89580000D01*
X146980000Y-89580000D02*
X146980000Y-93800000D01*
X154600000Y-93800000D02*
X154600000Y-90400000D01*
X156200000Y-88800000D02*
X156200000Y-86600000D01*
X154600000Y-90400000D02*
X156200000Y-88800000D01*
D15*
G36*
X158646500Y-95040000D02*
X156055568Y-95040000D01*
X156076410Y-94993763D01*
X156101672Y-94816000D01*
X156101672Y-92784000D01*
X156093608Y-92682879D01*
X156040494Y-92511366D01*
X155941700Y-92361441D01*
X155805050Y-92244975D01*
X155641363Y-92171190D01*
X155552500Y-92158562D01*
X155552500Y-90794538D01*
X156873519Y-89473519D01*
X156929374Y-89405521D01*
X156985921Y-89338131D01*
X156988333Y-89333743D01*
X156991513Y-89329872D01*
X157033101Y-89252310D01*
X157075476Y-89175230D01*
X157076990Y-89170457D01*
X157079358Y-89166041D01*
X157105076Y-89081921D01*
X157131686Y-88998036D01*
X157132245Y-88993054D01*
X157133708Y-88988268D01*
X157142596Y-88900772D01*
X157152407Y-88813299D01*
X157152475Y-88803507D01*
X157152494Y-88803325D01*
X157152478Y-88803155D01*
X157152500Y-88800000D01*
X157152500Y-88287388D01*
X157397069Y-88132179D01*
X157671873Y-87870487D01*
X157890614Y-87560402D01*
X158044959Y-87213736D01*
X158129031Y-86843693D01*
X158135083Y-86410263D01*
X158061377Y-86038017D01*
X157916771Y-85687177D01*
X157706773Y-85371106D01*
X157439384Y-85101843D01*
X157124786Y-84889644D01*
X156774964Y-84742592D01*
X156403241Y-84666288D01*
X156023777Y-84663639D01*
X155651026Y-84734745D01*
X155299184Y-84876899D01*
X154981655Y-85084684D01*
X154710532Y-85350188D01*
X154496142Y-85663296D01*
X154346651Y-86012083D01*
X154267754Y-86383264D01*
X154262456Y-86762700D01*
X154330958Y-87135939D01*
X154470652Y-87488764D01*
X154676215Y-87807737D01*
X154939820Y-88080707D01*
X155247500Y-88294550D01*
X155247500Y-88405462D01*
X153926481Y-89726481D01*
X153870626Y-89794479D01*
X153814079Y-89861869D01*
X153811667Y-89866257D01*
X153808487Y-89870128D01*
X153766899Y-89947690D01*
X153724524Y-90024770D01*
X153723010Y-90029543D01*
X153720642Y-90033959D01*
X153694920Y-90118091D01*
X153668314Y-90201964D01*
X153667755Y-90206945D01*
X153666292Y-90211731D01*
X153657404Y-90299233D01*
X153647593Y-90386701D01*
X153647525Y-90396493D01*
X153647506Y-90396675D01*
X153647522Y-90396845D01*
X153647500Y-90400000D01*
X153647500Y-92153017D01*
X153635279Y-92153992D01*
X153463766Y-92207106D01*
X153313841Y-92305900D01*
X153197375Y-92442550D01*
X153126279Y-92600272D01*
X152962035Y-92449267D01*
X152710919Y-92296314D01*
X152434789Y-92195291D01*
X152419026Y-92192642D01*
X152187000Y-92313783D01*
X152187000Y-93673000D01*
X152207000Y-93673000D01*
X152207000Y-93927000D01*
X152187000Y-93927000D01*
X152187000Y-93947000D01*
X151933000Y-93947000D01*
X151933000Y-93927000D01*
X149647000Y-93927000D01*
X149647000Y-93947000D01*
X149393000Y-93947000D01*
X149393000Y-93927000D01*
X149373000Y-93927000D01*
X149373000Y-93673000D01*
X149393000Y-93673000D01*
X149393000Y-92313783D01*
X149647000Y-92313783D01*
X149647000Y-93673000D01*
X151933000Y-93673000D01*
X151933000Y-92313783D01*
X151700974Y-92192642D01*
X151685211Y-92195291D01*
X151409081Y-92296314D01*
X151157965Y-92449267D01*
X150941514Y-92648271D01*
X150790000Y-92855633D01*
X150638486Y-92648271D01*
X150422035Y-92449267D01*
X150170919Y-92296314D01*
X149894789Y-92195291D01*
X149879026Y-92192642D01*
X149647000Y-92313783D01*
X149393000Y-92313783D01*
X149160974Y-92192642D01*
X149145211Y-92195291D01*
X148869081Y-92296314D01*
X148617965Y-92449267D01*
X148401514Y-92648271D01*
X148251343Y-92853795D01*
X148228216Y-92810299D01*
X148043363Y-92583647D01*
X147932500Y-92491933D01*
X147932500Y-89580000D01*
X147923915Y-89492440D01*
X147916246Y-89404786D01*
X147914849Y-89399977D01*
X147914360Y-89394992D01*
X147888929Y-89310761D01*
X147864383Y-89226273D01*
X147862078Y-89221826D01*
X147860630Y-89217030D01*
X147819340Y-89139375D01*
X147778834Y-89061231D01*
X147775706Y-89057312D01*
X147773357Y-89052895D01*
X147717787Y-88984759D01*
X147662858Y-88915951D01*
X147655980Y-88908976D01*
X147655866Y-88908836D01*
X147655737Y-88908729D01*
X147653520Y-88906481D01*
X147152500Y-88405462D01*
X147152500Y-88287388D01*
X147397069Y-88132179D01*
X147671873Y-87870487D01*
X147890614Y-87560402D01*
X148044959Y-87213736D01*
X148129031Y-86843693D01*
X148135083Y-86410263D01*
X148061377Y-86038017D01*
X147916771Y-85687177D01*
X147706773Y-85371106D01*
X147439384Y-85101843D01*
X147124786Y-84889644D01*
X146774964Y-84742592D01*
X146403241Y-84666288D01*
X146023777Y-84663639D01*
X145651026Y-84734745D01*
X145299184Y-84876899D01*
X144981655Y-85084684D01*
X144710532Y-85350188D01*
X144496142Y-85663296D01*
X144346651Y-86012083D01*
X144267754Y-86383264D01*
X144262456Y-86762700D01*
X144330958Y-87135939D01*
X144470652Y-87488764D01*
X144676215Y-87807737D01*
X144939820Y-88080707D01*
X145247500Y-88294550D01*
X145247500Y-88800000D01*
X145256089Y-88887601D01*
X145263754Y-88975214D01*
X145265151Y-88980023D01*
X145265640Y-88985008D01*
X145291071Y-89069239D01*
X145315617Y-89153727D01*
X145317922Y-89158174D01*
X145319370Y-89162970D01*
X145360660Y-89240625D01*
X145401166Y-89318769D01*
X145404294Y-89322688D01*
X145406643Y-89327105D01*
X145462218Y-89395247D01*
X145517143Y-89464050D01*
X145524016Y-89471020D01*
X145524134Y-89471164D01*
X145524267Y-89471274D01*
X145526481Y-89473519D01*
X146027500Y-89974539D01*
X146027500Y-92491705D01*
X145931485Y-92568903D01*
X145743485Y-92792952D01*
X145602584Y-93049251D01*
X145514148Y-93328036D01*
X145481546Y-93618688D01*
X145481400Y-93639612D01*
X145481400Y-93960388D01*
X145509941Y-94251468D01*
X145594475Y-94531460D01*
X145731784Y-94789701D01*
X145916637Y-95016353D01*
X145945221Y-95040000D01*
X143620000Y-95040000D01*
X143620000Y-82949224D01*
X150030381Y-82949224D01*
X150162317Y-83244312D01*
X150503045Y-83415159D01*
X150870557Y-83516250D01*
X151250729Y-83543701D01*
X151628951Y-83496457D01*
X151990690Y-83376333D01*
X152237683Y-83244312D01*
X152369619Y-82949224D01*
X151200000Y-81779605D01*
X150030381Y-82949224D01*
X143620000Y-82949224D01*
X143620000Y-81650729D01*
X149256299Y-81650729D01*
X149303543Y-82028951D01*
X149423667Y-82390690D01*
X149555688Y-82637683D01*
X149850776Y-82769619D01*
X151020395Y-81600000D01*
X151379605Y-81600000D01*
X152549224Y-82769619D01*
X152844312Y-82637683D01*
X153015159Y-82296955D01*
X153116250Y-81929443D01*
X153143701Y-81549271D01*
X153096457Y-81171049D01*
X152976333Y-80809310D01*
X152844312Y-80562317D01*
X152549224Y-80430381D01*
X151379605Y-81600000D01*
X151020395Y-81600000D01*
X149850776Y-80430381D01*
X149555688Y-80562317D01*
X149384841Y-80903045D01*
X149283750Y-81270557D01*
X149256299Y-81650729D01*
X143620000Y-81650729D01*
X143620000Y-80250776D01*
X150030381Y-80250776D01*
X151200000Y-81420395D01*
X152369619Y-80250776D01*
X152237683Y-79955688D01*
X151896955Y-79784841D01*
X151529443Y-79683750D01*
X151149271Y-79656299D01*
X150771049Y-79703543D01*
X150409310Y-79823667D01*
X150162317Y-79955688D01*
X150030381Y-80250776D01*
X143620000Y-80250776D01*
X143620000Y-75378000D01*
X158646500Y-75378000D01*
X158646500Y-95040000D01*
X158646500Y-95040000D01*
G37*
X158646500Y-95040000D02*
X156055568Y-95040000D01*
X156076410Y-94993763D01*
X156101672Y-94816000D01*
X156101672Y-92784000D01*
X156093608Y-92682879D01*
X156040494Y-92511366D01*
X155941700Y-92361441D01*
X155805050Y-92244975D01*
X155641363Y-92171190D01*
X155552500Y-92158562D01*
X155552500Y-90794538D01*
X156873519Y-89473519D01*
X156929374Y-89405521D01*
X156985921Y-89338131D01*
X156988333Y-89333743D01*
X156991513Y-89329872D01*
X157033101Y-89252310D01*
X157075476Y-89175230D01*
X157076990Y-89170457D01*
X157079358Y-89166041D01*
X157105076Y-89081921D01*
X157131686Y-88998036D01*
X157132245Y-88993054D01*
X157133708Y-88988268D01*
X157142596Y-88900772D01*
X157152407Y-88813299D01*
X157152475Y-88803507D01*
X157152494Y-88803325D01*
X157152478Y-88803155D01*
X157152500Y-88800000D01*
X157152500Y-88287388D01*
X157397069Y-88132179D01*
X157671873Y-87870487D01*
X157890614Y-87560402D01*
X158044959Y-87213736D01*
X158129031Y-86843693D01*
X158135083Y-86410263D01*
X158061377Y-86038017D01*
X157916771Y-85687177D01*
X157706773Y-85371106D01*
X157439384Y-85101843D01*
X157124786Y-84889644D01*
X156774964Y-84742592D01*
X156403241Y-84666288D01*
X156023777Y-84663639D01*
X155651026Y-84734745D01*
X155299184Y-84876899D01*
X154981655Y-85084684D01*
X154710532Y-85350188D01*
X154496142Y-85663296D01*
X154346651Y-86012083D01*
X154267754Y-86383264D01*
X154262456Y-86762700D01*
X154330958Y-87135939D01*
X154470652Y-87488764D01*
X154676215Y-87807737D01*
X154939820Y-88080707D01*
X155247500Y-88294550D01*
X155247500Y-88405462D01*
X153926481Y-89726481D01*
X153870626Y-89794479D01*
X153814079Y-89861869D01*
X153811667Y-89866257D01*
X153808487Y-89870128D01*
X153766899Y-89947690D01*
X153724524Y-90024770D01*
X153723010Y-90029543D01*
X153720642Y-90033959D01*
X153694920Y-90118091D01*
X153668314Y-90201964D01*
X153667755Y-90206945D01*
X153666292Y-90211731D01*
X153657404Y-90299233D01*
X153647593Y-90386701D01*
X153647525Y-90396493D01*
X153647506Y-90396675D01*
X153647522Y-90396845D01*
X153647500Y-90400000D01*
X153647500Y-92153017D01*
X153635279Y-92153992D01*
X153463766Y-92207106D01*
X153313841Y-92305900D01*
X153197375Y-92442550D01*
X153126279Y-92600272D01*
X152962035Y-92449267D01*
X152710919Y-92296314D01*
X152434789Y-92195291D01*
X152419026Y-92192642D01*
X152187000Y-92313783D01*
X152187000Y-93673000D01*
X152207000Y-93673000D01*
X152207000Y-93927000D01*
X152187000Y-93927000D01*
X152187000Y-93947000D01*
X151933000Y-93947000D01*
X151933000Y-93927000D01*
X149647000Y-93927000D01*
X149647000Y-93947000D01*
X149393000Y-93947000D01*
X149393000Y-93927000D01*
X149373000Y-93927000D01*
X149373000Y-93673000D01*
X149393000Y-93673000D01*
X149393000Y-92313783D01*
X149647000Y-92313783D01*
X149647000Y-93673000D01*
X151933000Y-93673000D01*
X151933000Y-92313783D01*
X151700974Y-92192642D01*
X151685211Y-92195291D01*
X151409081Y-92296314D01*
X151157965Y-92449267D01*
X150941514Y-92648271D01*
X150790000Y-92855633D01*
X150638486Y-92648271D01*
X150422035Y-92449267D01*
X150170919Y-92296314D01*
X149894789Y-92195291D01*
X149879026Y-92192642D01*
X149647000Y-92313783D01*
X149393000Y-92313783D01*
X149160974Y-92192642D01*
X149145211Y-92195291D01*
X148869081Y-92296314D01*
X148617965Y-92449267D01*
X148401514Y-92648271D01*
X148251343Y-92853795D01*
X148228216Y-92810299D01*
X148043363Y-92583647D01*
X147932500Y-92491933D01*
X147932500Y-89580000D01*
X147923915Y-89492440D01*
X147916246Y-89404786D01*
X147914849Y-89399977D01*
X147914360Y-89394992D01*
X147888929Y-89310761D01*
X147864383Y-89226273D01*
X147862078Y-89221826D01*
X147860630Y-89217030D01*
X147819340Y-89139375D01*
X147778834Y-89061231D01*
X147775706Y-89057312D01*
X147773357Y-89052895D01*
X147717787Y-88984759D01*
X147662858Y-88915951D01*
X147655980Y-88908976D01*
X147655866Y-88908836D01*
X147655737Y-88908729D01*
X147653520Y-88906481D01*
X147152500Y-88405462D01*
X147152500Y-88287388D01*
X147397069Y-88132179D01*
X147671873Y-87870487D01*
X147890614Y-87560402D01*
X148044959Y-87213736D01*
X148129031Y-86843693D01*
X148135083Y-86410263D01*
X148061377Y-86038017D01*
X147916771Y-85687177D01*
X147706773Y-85371106D01*
X147439384Y-85101843D01*
X147124786Y-84889644D01*
X146774964Y-84742592D01*
X146403241Y-84666288D01*
X146023777Y-84663639D01*
X145651026Y-84734745D01*
X145299184Y-84876899D01*
X144981655Y-85084684D01*
X144710532Y-85350188D01*
X144496142Y-85663296D01*
X144346651Y-86012083D01*
X144267754Y-86383264D01*
X144262456Y-86762700D01*
X144330958Y-87135939D01*
X144470652Y-87488764D01*
X144676215Y-87807737D01*
X144939820Y-88080707D01*
X145247500Y-88294550D01*
X145247500Y-88800000D01*
X145256089Y-88887601D01*
X145263754Y-88975214D01*
X145265151Y-88980023D01*
X145265640Y-88985008D01*
X145291071Y-89069239D01*
X145315617Y-89153727D01*
X145317922Y-89158174D01*
X145319370Y-89162970D01*
X145360660Y-89240625D01*
X145401166Y-89318769D01*
X145404294Y-89322688D01*
X145406643Y-89327105D01*
X145462218Y-89395247D01*
X145517143Y-89464050D01*
X145524016Y-89471020D01*
X145524134Y-89471164D01*
X145524267Y-89471274D01*
X145526481Y-89473519D01*
X146027500Y-89974539D01*
X146027500Y-92491705D01*
X145931485Y-92568903D01*
X145743485Y-92792952D01*
X145602584Y-93049251D01*
X145514148Y-93328036D01*
X145481546Y-93618688D01*
X145481400Y-93639612D01*
X145481400Y-93960388D01*
X145509941Y-94251468D01*
X145594475Y-94531460D01*
X145731784Y-94789701D01*
X145916637Y-95016353D01*
X145945221Y-95040000D01*
X143620000Y-95040000D01*
X143620000Y-82949224D01*
X150030381Y-82949224D01*
X150162317Y-83244312D01*
X150503045Y-83415159D01*
X150870557Y-83516250D01*
X151250729Y-83543701D01*
X151628951Y-83496457D01*
X151990690Y-83376333D01*
X152237683Y-83244312D01*
X152369619Y-82949224D01*
X151200000Y-81779605D01*
X150030381Y-82949224D01*
X143620000Y-82949224D01*
X143620000Y-81650729D01*
X149256299Y-81650729D01*
X149303543Y-82028951D01*
X149423667Y-82390690D01*
X149555688Y-82637683D01*
X149850776Y-82769619D01*
X151020395Y-81600000D01*
X151379605Y-81600000D01*
X152549224Y-82769619D01*
X152844312Y-82637683D01*
X153015159Y-82296955D01*
X153116250Y-81929443D01*
X153143701Y-81549271D01*
X153096457Y-81171049D01*
X152976333Y-80809310D01*
X152844312Y-80562317D01*
X152549224Y-80430381D01*
X151379605Y-81600000D01*
X151020395Y-81600000D01*
X149850776Y-80430381D01*
X149555688Y-80562317D01*
X149384841Y-80903045D01*
X149283750Y-81270557D01*
X149256299Y-81650729D01*
X143620000Y-81650729D01*
X143620000Y-80250776D01*
X150030381Y-80250776D01*
X151200000Y-81420395D01*
X152369619Y-80250776D01*
X152237683Y-79955688D01*
X151896955Y-79784841D01*
X151529443Y-79683750D01*
X151149271Y-79656299D01*
X150771049Y-79703543D01*
X150409310Y-79823667D01*
X150162317Y-79955688D01*
X150030381Y-80250776D01*
X143620000Y-80250776D01*
X143620000Y-75378000D01*
X158646500Y-75378000D01*
X158646500Y-95040000D01*
M02*
