G04 #@! TF.FileFunction,Legend,Top*
%FSLAX46Y46*%
G04 Gerber Fmt 4.6, Leading zero omitted, Abs format (unit mm)*
G04 Created by KiCad (PCBNEW 4.0.6) date Tue May 30 16:02:55 2017*
%MOMM*%
%LPD*%
G01*
G04 APERTURE LIST*
%ADD10C,0.100000*%
%ADD11C,0.200000*%
%ADD12C,0.158750*%
%ADD13C,0.127000*%
%ADD14C,0.300000*%
%ADD15C,1.000000*%
%ADD16C,0.150000*%
G04 APERTURE END LIST*
D10*
D11*
X159166000Y-74922000D02*
X143164000Y-74922000D01*
X159166000Y-95496000D02*
X159166000Y-74922000D01*
X143164000Y-95496000D02*
X159166000Y-95496000D01*
X143164000Y-74922000D02*
X143164000Y-95496000D01*
D12*
X153578000Y-91465262D02*
X153324000Y-91162881D01*
X153142572Y-91465262D02*
X153142572Y-90830262D01*
X153432857Y-90830262D01*
X153505429Y-90860500D01*
X153541714Y-90890738D01*
X153578000Y-90951214D01*
X153578000Y-91041929D01*
X153541714Y-91102405D01*
X153505429Y-91132643D01*
X153432857Y-91162881D01*
X153142572Y-91162881D01*
X153904572Y-91465262D02*
X153904572Y-90830262D01*
X154666571Y-90860500D02*
X154594000Y-90830262D01*
X154485143Y-90830262D01*
X154376286Y-90860500D01*
X154303714Y-90920976D01*
X154267429Y-90981452D01*
X154231143Y-91102405D01*
X154231143Y-91193119D01*
X154267429Y-91314071D01*
X154303714Y-91374548D01*
X154376286Y-91435024D01*
X154485143Y-91465262D01*
X154557714Y-91465262D01*
X154666571Y-91435024D01*
X154702857Y-91404786D01*
X154702857Y-91193119D01*
X154557714Y-91193119D01*
X155029429Y-91465262D02*
X155029429Y-90830262D01*
X155029429Y-91132643D02*
X155464857Y-91132643D01*
X155464857Y-91465262D02*
X155464857Y-90830262D01*
X155718857Y-90830262D02*
X156154286Y-90830262D01*
X155936572Y-91465262D02*
X155936572Y-90830262D01*
D13*
X151800000Y-91565047D02*
X151775810Y-91613428D01*
X151775810Y-91686000D01*
X151800000Y-91758571D01*
X151848381Y-91806952D01*
X151896762Y-91831143D01*
X151993524Y-91855333D01*
X152066095Y-91855333D01*
X152162857Y-91831143D01*
X152211238Y-91806952D01*
X152259619Y-91758571D01*
X152283810Y-91686000D01*
X152283810Y-91637619D01*
X152259619Y-91565047D01*
X152235429Y-91540857D01*
X152066095Y-91540857D01*
X152066095Y-91637619D01*
X152283810Y-91323143D02*
X151775810Y-91323143D01*
X152283810Y-91032857D01*
X151775810Y-91032857D01*
X152283810Y-90790953D02*
X151775810Y-90790953D01*
X151775810Y-90670000D01*
X151800000Y-90597429D01*
X151848381Y-90549048D01*
X151896762Y-90524857D01*
X151993524Y-90500667D01*
X152066095Y-90500667D01*
X152162857Y-90524857D01*
X152211238Y-90549048D01*
X152259619Y-90597429D01*
X152283810Y-90670000D01*
X152283810Y-90790953D01*
X149260000Y-91565047D02*
X149235810Y-91613428D01*
X149235810Y-91686000D01*
X149260000Y-91758571D01*
X149308381Y-91806952D01*
X149356762Y-91831143D01*
X149453524Y-91855333D01*
X149526095Y-91855333D01*
X149622857Y-91831143D01*
X149671238Y-91806952D01*
X149719619Y-91758571D01*
X149743810Y-91686000D01*
X149743810Y-91637619D01*
X149719619Y-91565047D01*
X149695429Y-91540857D01*
X149526095Y-91540857D01*
X149526095Y-91637619D01*
X149743810Y-91323143D02*
X149235810Y-91323143D01*
X149743810Y-91032857D01*
X149235810Y-91032857D01*
X149743810Y-90790953D02*
X149235810Y-90790953D01*
X149235810Y-90670000D01*
X149260000Y-90597429D01*
X149308381Y-90549048D01*
X149356762Y-90524857D01*
X149453524Y-90500667D01*
X149526095Y-90500667D01*
X149622857Y-90524857D01*
X149671238Y-90549048D01*
X149719619Y-90597429D01*
X149743810Y-90670000D01*
X149743810Y-90790953D01*
D12*
X146248286Y-91465262D02*
X145885429Y-91465262D01*
X145885429Y-90830262D01*
X146502286Y-91132643D02*
X146756286Y-91132643D01*
X146865143Y-91465262D02*
X146502286Y-91465262D01*
X146502286Y-90830262D01*
X146865143Y-90830262D01*
X147445715Y-91132643D02*
X147191715Y-91132643D01*
X147191715Y-91465262D02*
X147191715Y-90830262D01*
X147554572Y-90830262D01*
X147736000Y-90830262D02*
X148171429Y-90830262D01*
X147953715Y-91465262D02*
X147953715Y-90830262D01*
D14*
X152800000Y-78400000D02*
X152800000Y-75600000D01*
X152800000Y-75600000D02*
X149400000Y-75600000D01*
X149400000Y-75600000D02*
X149400000Y-78400000D01*
X149200000Y-78400000D02*
X153200000Y-78400000D01*
D15*
X152400000Y-76600000D02*
X150200000Y-76600000D01*
X149800000Y-77200000D02*
X152400000Y-77200000D01*
X149800000Y-78000000D02*
X152400000Y-78000000D01*
X149800000Y-77800000D02*
X149800000Y-78000000D01*
X149800000Y-77800000D02*
X149800000Y-76000000D01*
X149800000Y-76000000D02*
X152400000Y-76000000D01*
X152400000Y-76000000D02*
X152400000Y-78000000D01*
D14*
X144200000Y-90000000D02*
X158200000Y-90000000D01*
X158200000Y-90000000D02*
X158200000Y-78400000D01*
X158200000Y-78400000D02*
X152600000Y-78400000D01*
X152600000Y-78400000D02*
X152600000Y-76400000D01*
X149800000Y-78400000D02*
X144200000Y-78400000D01*
X144200000Y-78400000D02*
X144200000Y-90000000D01*
D16*
X153330000Y-92530000D02*
X145710000Y-92530000D01*
X153330000Y-95070000D02*
X145710000Y-95070000D01*
X156150000Y-95350000D02*
X154600000Y-95350000D01*
X145710000Y-92530000D02*
X145710000Y-95070000D01*
X153330000Y-95070000D02*
X153330000Y-92530000D01*
X154600000Y-92250000D02*
X156150000Y-92250000D01*
X156150000Y-92250000D02*
X156150000Y-95350000D01*
M02*
