G04 (created by PCBNEW (2013-june-11)-stable) date Fri 20 Feb 2015 10:27:55 AM PST*
%MOIN*%
G04 Gerber Fmt 3.4, Leading zero omitted, Abs format*
%FSLAX34Y34*%
G01*
G70*
G90*
G04 APERTURE LIST*
%ADD10C,0.005*%
%ADD11C,0.00393701*%
%ADD12C,0.00787402*%
%ADD13C,0.011811*%
G04 APERTURE END LIST*
G54D10*
G54D11*
X96450Y-54950D02*
X89200Y-54950D01*
X97450Y-53000D02*
X97450Y-53950D01*
X89200Y-52000D02*
X96450Y-52000D01*
X88200Y-53000D02*
X88200Y-53950D01*
X97450Y-53000D02*
G75*
G03X96450Y-52000I-1000J0D01*
G74*
G01*
X96450Y-54950D02*
G75*
G03X97450Y-53950I0J1000D01*
G74*
G01*
X88200Y-53950D02*
G75*
G03X89200Y-54950I1000J0D01*
G74*
G01*
X89200Y-52000D02*
G75*
G03X88200Y-53000I0J-1000D01*
G74*
G01*
G54D12*
X89300Y-52800D02*
X89700Y-53200D01*
X89700Y-52800D02*
X89300Y-53200D01*
X89300Y-53800D02*
X89700Y-54200D01*
X89700Y-53800D02*
X89300Y-54200D01*
X96450Y-52800D02*
X96850Y-53200D01*
X96850Y-52800D02*
X96450Y-53200D01*
X96450Y-53800D02*
X96850Y-54200D01*
X96850Y-53800D02*
X96450Y-54200D01*
G54D13*
X89248Y-56746D02*
X89248Y-55565D01*
X89530Y-55565D01*
X89698Y-55622D01*
X89811Y-55734D01*
X89867Y-55847D01*
X89923Y-56072D01*
X89923Y-56240D01*
X89867Y-56465D01*
X89811Y-56578D01*
X89698Y-56690D01*
X89530Y-56746D01*
X89248Y-56746D01*
X90430Y-56746D02*
X90430Y-55959D01*
X90430Y-56184D02*
X90486Y-56072D01*
X90542Y-56015D01*
X90655Y-55959D01*
X90767Y-55959D01*
X91161Y-56746D02*
X91161Y-55959D01*
X91161Y-55565D02*
X91104Y-55622D01*
X91161Y-55678D01*
X91217Y-55622D01*
X91161Y-55565D01*
X91161Y-55678D01*
X91892Y-56746D02*
X91779Y-56690D01*
X91723Y-56578D01*
X91723Y-55565D01*
X92511Y-56746D02*
X92398Y-56690D01*
X92342Y-56578D01*
X92342Y-55565D01*
X93860Y-56746D02*
X93860Y-55565D01*
X94254Y-56409D01*
X94648Y-55565D01*
X94648Y-56746D01*
X95716Y-56746D02*
X95716Y-56128D01*
X95660Y-56015D01*
X95548Y-55959D01*
X95323Y-55959D01*
X95210Y-56015D01*
X95716Y-56690D02*
X95604Y-56746D01*
X95323Y-56746D01*
X95210Y-56690D01*
X95154Y-56578D01*
X95154Y-56465D01*
X95210Y-56353D01*
X95323Y-56297D01*
X95604Y-56297D01*
X95716Y-56240D01*
X96279Y-55959D02*
X96279Y-57140D01*
X96279Y-56015D02*
X96391Y-55959D01*
X96616Y-55959D01*
X96729Y-56015D01*
X96785Y-56072D01*
X96841Y-56184D01*
X96841Y-56521D01*
X96785Y-56634D01*
X96729Y-56690D01*
X96616Y-56746D01*
X96391Y-56746D01*
X96279Y-56690D01*
X97347Y-56634D02*
X97404Y-56690D01*
X97347Y-56746D01*
X97291Y-56690D01*
X97347Y-56634D01*
X97347Y-56746D01*
X97347Y-56015D02*
X97404Y-56072D01*
X97347Y-56128D01*
X97291Y-56072D01*
X97347Y-56015D01*
X97347Y-56128D01*
X87780Y-58549D02*
X88180Y-58949D01*
X88180Y-58549D02*
X87780Y-58949D01*
X89867Y-59227D02*
X89192Y-59227D01*
X89530Y-59227D02*
X89530Y-58046D01*
X89417Y-58214D01*
X89305Y-58327D01*
X89192Y-58383D01*
X90373Y-59114D02*
X90430Y-59171D01*
X90373Y-59227D01*
X90317Y-59171D01*
X90373Y-59114D01*
X90373Y-59227D01*
X91161Y-58046D02*
X91273Y-58046D01*
X91386Y-58102D01*
X91442Y-58158D01*
X91498Y-58271D01*
X91554Y-58496D01*
X91554Y-58777D01*
X91498Y-59002D01*
X91442Y-59114D01*
X91386Y-59171D01*
X91273Y-59227D01*
X91161Y-59227D01*
X91048Y-59171D01*
X90992Y-59114D01*
X90936Y-59002D01*
X90879Y-58777D01*
X90879Y-58496D01*
X90936Y-58271D01*
X90992Y-58158D01*
X91048Y-58102D01*
X91161Y-58046D01*
X92004Y-58158D02*
X92061Y-58102D01*
X92173Y-58046D01*
X92454Y-58046D01*
X92567Y-58102D01*
X92623Y-58158D01*
X92679Y-58271D01*
X92679Y-58383D01*
X92623Y-58552D01*
X91948Y-59227D01*
X92679Y-59227D01*
X93185Y-59227D02*
X93185Y-58439D01*
X93185Y-58552D02*
X93242Y-58496D01*
X93354Y-58439D01*
X93523Y-58439D01*
X93635Y-58496D01*
X93692Y-58608D01*
X93692Y-59227D01*
X93692Y-58608D02*
X93748Y-58496D01*
X93860Y-58439D01*
X94029Y-58439D01*
X94142Y-58496D01*
X94198Y-58608D01*
X94198Y-59227D01*
X94760Y-59227D02*
X94760Y-58439D01*
X94760Y-58552D02*
X94816Y-58496D01*
X94929Y-58439D01*
X95098Y-58439D01*
X95210Y-58496D01*
X95266Y-58608D01*
X95266Y-59227D01*
X95266Y-58608D02*
X95323Y-58496D01*
X95435Y-58439D01*
X95604Y-58439D01*
X95716Y-58496D01*
X95773Y-58608D01*
X95773Y-59227D01*
X98079Y-57989D02*
X97066Y-59508D01*
X99597Y-58046D02*
X99710Y-58046D01*
X99822Y-58102D01*
X99878Y-58158D01*
X99935Y-58271D01*
X99991Y-58496D01*
X99991Y-58777D01*
X99935Y-59002D01*
X99878Y-59114D01*
X99822Y-59171D01*
X99710Y-59227D01*
X99597Y-59227D01*
X99485Y-59171D01*
X99428Y-59114D01*
X99372Y-59002D01*
X99316Y-58777D01*
X99316Y-58496D01*
X99372Y-58271D01*
X99428Y-58158D01*
X99485Y-58102D01*
X99597Y-58046D01*
X100497Y-59114D02*
X100553Y-59171D01*
X100497Y-59227D01*
X100441Y-59171D01*
X100497Y-59114D01*
X100497Y-59227D01*
X101284Y-58046D02*
X101397Y-58046D01*
X101509Y-58102D01*
X101566Y-58158D01*
X101622Y-58271D01*
X101678Y-58496D01*
X101678Y-58777D01*
X101622Y-59002D01*
X101566Y-59114D01*
X101509Y-59171D01*
X101397Y-59227D01*
X101284Y-59227D01*
X101172Y-59171D01*
X101116Y-59114D01*
X101059Y-59002D01*
X101003Y-58777D01*
X101003Y-58496D01*
X101059Y-58271D01*
X101116Y-58158D01*
X101172Y-58102D01*
X101284Y-58046D01*
X102691Y-58439D02*
X102691Y-59227D01*
X102409Y-57989D02*
X102128Y-58833D01*
X102859Y-58833D01*
X103534Y-58046D02*
X103647Y-58046D01*
X103759Y-58102D01*
X103815Y-58158D01*
X103872Y-58271D01*
X103928Y-58496D01*
X103928Y-58777D01*
X103872Y-59002D01*
X103815Y-59114D01*
X103759Y-59171D01*
X103647Y-59227D01*
X103534Y-59227D01*
X103422Y-59171D01*
X103365Y-59114D01*
X103309Y-59002D01*
X103253Y-58777D01*
X103253Y-58496D01*
X103309Y-58271D01*
X103365Y-58158D01*
X103422Y-58102D01*
X103534Y-58046D01*
X104378Y-58046D02*
X104378Y-58271D01*
X104828Y-58046D02*
X104828Y-58271D01*
X106571Y-59677D02*
X106515Y-59620D01*
X106403Y-59452D01*
X106346Y-59339D01*
X106290Y-59171D01*
X106234Y-58889D01*
X106234Y-58664D01*
X106290Y-58383D01*
X106346Y-58214D01*
X106403Y-58102D01*
X106515Y-57933D01*
X106571Y-57877D01*
X107527Y-58439D02*
X107527Y-59227D01*
X107246Y-57989D02*
X106965Y-58833D01*
X107696Y-58833D01*
X109046Y-59227D02*
X109046Y-58046D01*
X109552Y-59227D02*
X109552Y-58608D01*
X109496Y-58496D01*
X109383Y-58439D01*
X109215Y-58439D01*
X109102Y-58496D01*
X109046Y-58552D01*
X110283Y-59227D02*
X110171Y-59171D01*
X110115Y-59114D01*
X110058Y-59002D01*
X110058Y-58664D01*
X110115Y-58552D01*
X110171Y-58496D01*
X110283Y-58439D01*
X110452Y-58439D01*
X110565Y-58496D01*
X110621Y-58552D01*
X110677Y-58664D01*
X110677Y-59002D01*
X110621Y-59114D01*
X110565Y-59171D01*
X110452Y-59227D01*
X110283Y-59227D01*
X111352Y-59227D02*
X111239Y-59171D01*
X111183Y-59058D01*
X111183Y-58046D01*
X112252Y-59171D02*
X112139Y-59227D01*
X111914Y-59227D01*
X111802Y-59171D01*
X111746Y-59058D01*
X111746Y-58608D01*
X111802Y-58496D01*
X111914Y-58439D01*
X112139Y-58439D01*
X112252Y-58496D01*
X112308Y-58608D01*
X112308Y-58721D01*
X111746Y-58833D01*
X112758Y-59171D02*
X112870Y-59227D01*
X113095Y-59227D01*
X113208Y-59171D01*
X113264Y-59058D01*
X113264Y-59002D01*
X113208Y-58889D01*
X113095Y-58833D01*
X112927Y-58833D01*
X112814Y-58777D01*
X112758Y-58664D01*
X112758Y-58608D01*
X112814Y-58496D01*
X112927Y-58439D01*
X113095Y-58439D01*
X113208Y-58496D01*
X113658Y-59677D02*
X113714Y-59620D01*
X113827Y-59452D01*
X113883Y-59339D01*
X113939Y-59171D01*
X113995Y-58889D01*
X113995Y-58664D01*
X113939Y-58383D01*
X113883Y-58214D01*
X113827Y-58102D01*
X113714Y-57933D01*
X113658Y-57877D01*
M02*
