G04 (created by PCBNEW (2013-june-11)-stable) date Fri 20 Feb 2015 11:36:36 AM PST*
%MOIN*%
G04 Gerber Fmt 3.4, Leading zero omitted, Abs format*
%FSLAX34Y34*%
G01*
G70*
G90*
G04 APERTURE LIST*
%ADD10C,0.00590551*%
%ADD11C,0.00625*%
%ADD12C,0.01*%
%ADD13C,0.005*%
%ADD14C,0.003*%
G04 APERTURE END LIST*
G54D10*
G54D11*
X95913Y-52640D02*
X95901Y-52664D01*
X95901Y-52700D01*
X95913Y-52735D01*
X95936Y-52759D01*
X95960Y-52771D01*
X96008Y-52783D01*
X96044Y-52783D01*
X96091Y-52771D01*
X96115Y-52759D01*
X96139Y-52735D01*
X96151Y-52700D01*
X96151Y-52676D01*
X96139Y-52640D01*
X96127Y-52628D01*
X96044Y-52628D01*
X96044Y-52676D01*
X96151Y-52521D02*
X95901Y-52521D01*
X96151Y-52378D01*
X95901Y-52378D01*
X96151Y-52259D02*
X95901Y-52259D01*
X95901Y-52200D01*
X95913Y-52164D01*
X95936Y-52140D01*
X95960Y-52128D01*
X96008Y-52116D01*
X96044Y-52116D01*
X96091Y-52128D01*
X96115Y-52140D01*
X96139Y-52164D01*
X96151Y-52200D01*
X96151Y-52259D01*
X95901Y-54800D02*
X95901Y-54752D01*
X95913Y-54728D01*
X95936Y-54704D01*
X95984Y-54692D01*
X96067Y-54692D01*
X96115Y-54704D01*
X96139Y-54728D01*
X96151Y-54752D01*
X96151Y-54800D01*
X96139Y-54823D01*
X96115Y-54847D01*
X96067Y-54859D01*
X95984Y-54859D01*
X95936Y-54847D01*
X95913Y-54823D01*
X95901Y-54800D01*
X95901Y-54585D02*
X96103Y-54585D01*
X96127Y-54573D01*
X96139Y-54561D01*
X96151Y-54538D01*
X96151Y-54490D01*
X96139Y-54466D01*
X96127Y-54454D01*
X96103Y-54442D01*
X95901Y-54442D01*
X95901Y-54359D02*
X95901Y-54216D01*
X96151Y-54288D02*
X95901Y-54288D01*
G54D12*
X89000Y-53500D02*
X90000Y-53500D01*
X89000Y-54500D02*
X90000Y-54500D01*
X90000Y-54500D02*
X90000Y-53500D01*
X90000Y-53500D02*
X90000Y-52500D01*
X90000Y-52500D02*
X89000Y-52500D01*
X89000Y-52500D02*
X89000Y-54500D01*
G54D13*
X90900Y-53850D02*
X90900Y-53150D01*
X90900Y-53150D02*
X92100Y-53150D01*
X92100Y-53150D02*
X92100Y-53850D01*
X92100Y-53850D02*
X90900Y-53850D01*
X92900Y-53850D02*
X92900Y-53150D01*
X92900Y-53150D02*
X94100Y-53150D01*
X94100Y-53150D02*
X94100Y-53850D01*
X94100Y-53850D02*
X92900Y-53850D01*
X94800Y-53850D02*
X94800Y-53150D01*
X94800Y-53150D02*
X96000Y-53150D01*
X96000Y-53150D02*
X96000Y-53850D01*
X96000Y-53850D02*
X94800Y-53850D01*
G54D14*
X88801Y-54027D02*
X88551Y-54027D01*
X88551Y-53932D01*
X88563Y-53908D01*
X88575Y-53896D01*
X88598Y-53884D01*
X88634Y-53884D01*
X88658Y-53896D01*
X88670Y-53908D01*
X88682Y-53932D01*
X88682Y-54027D01*
X88551Y-53729D02*
X88551Y-53682D01*
X88563Y-53658D01*
X88586Y-53634D01*
X88634Y-53622D01*
X88717Y-53622D01*
X88765Y-53634D01*
X88789Y-53658D01*
X88801Y-53682D01*
X88801Y-53729D01*
X88789Y-53753D01*
X88765Y-53777D01*
X88717Y-53789D01*
X88634Y-53789D01*
X88586Y-53777D01*
X88563Y-53753D01*
X88551Y-53729D01*
X88551Y-53539D02*
X88801Y-53479D01*
X88622Y-53432D01*
X88801Y-53384D01*
X88551Y-53325D01*
X88670Y-53229D02*
X88670Y-53146D01*
X88801Y-53110D02*
X88801Y-53229D01*
X88551Y-53229D01*
X88551Y-53110D01*
X88801Y-52860D02*
X88682Y-52944D01*
X88801Y-53003D02*
X88551Y-53003D01*
X88551Y-52908D01*
X88563Y-52884D01*
X88575Y-52872D01*
X88598Y-52860D01*
X88634Y-52860D01*
X88658Y-52872D01*
X88670Y-52884D01*
X88682Y-52908D01*
X88682Y-53003D01*
G54D13*
X91309Y-53401D02*
X91309Y-53603D01*
X91321Y-53627D01*
X91333Y-53639D01*
X91357Y-53651D01*
X91404Y-53651D01*
X91428Y-53639D01*
X91440Y-53627D01*
X91452Y-53603D01*
X91452Y-53401D01*
X91702Y-53651D02*
X91559Y-53651D01*
X91630Y-53651D02*
X91630Y-53401D01*
X91607Y-53436D01*
X91583Y-53460D01*
X91559Y-53472D01*
X93309Y-53401D02*
X93309Y-53603D01*
X93321Y-53627D01*
X93333Y-53639D01*
X93357Y-53651D01*
X93404Y-53651D01*
X93428Y-53639D01*
X93440Y-53627D01*
X93452Y-53603D01*
X93452Y-53401D01*
X93559Y-53425D02*
X93571Y-53413D01*
X93595Y-53401D01*
X93654Y-53401D01*
X93678Y-53413D01*
X93690Y-53425D01*
X93702Y-53448D01*
X93702Y-53472D01*
X93690Y-53508D01*
X93547Y-53651D01*
X93702Y-53651D01*
X95209Y-53401D02*
X95209Y-53603D01*
X95221Y-53627D01*
X95233Y-53639D01*
X95257Y-53651D01*
X95304Y-53651D01*
X95328Y-53639D01*
X95340Y-53627D01*
X95352Y-53603D01*
X95352Y-53401D01*
X95447Y-53401D02*
X95602Y-53401D01*
X95519Y-53496D01*
X95554Y-53496D01*
X95578Y-53508D01*
X95590Y-53520D01*
X95602Y-53544D01*
X95602Y-53603D01*
X95590Y-53627D01*
X95578Y-53639D01*
X95554Y-53651D01*
X95483Y-53651D01*
X95459Y-53639D01*
X95447Y-53627D01*
M02*
